<svg viewBox="0 0 924.81 173.64" xmlns="http://www.w3.org/2000/svg" xmlns:xlink="http://www.w3.org/1999/xlink"><clipPath id="a"><path d="m0 0h924.81v173.64h-924.81z"/></clipPath><clipPath id="b"><path d="m11.66 160.82 133.69-4.41 62.79-1.91-.03-.16 2.25-.01 121.16-5.38h6.95l139.51-2.57h.02-.02l139.73 2.57 7.19.04 121.45 4.66h1.44l174.9 5.18v-158.83h-910.71z"/></clipPath><clipPath id="c"><path d="m-85.62 65.27h1130.24v108.38h-1130.24z"/></clipPath><linearGradient id="d" gradientUnits="userSpaceOnUse" x1="7.87" x2="27.26" y1="167.62" y2="167.62"><stop offset="0" stop-color="#14509f"/><stop offset="1" stop-color="#14509f" stop-opacity="0"/></linearGradient><linearGradient id="e" gradientTransform="matrix(1 0 0 -1 -1449.71 335.23)" x1="2354.45" x2="2373.84" xlink:href="#d" y1="167.62" y2="167.62"/><g clip-path="url(#a)"><g clip-path="url(#b)" opacity=".2"><path d="m730.87 123.39c-.11-.43-1.22-2.56-3.25-2.33-1.62.18-2.74 1.56-3 2.97-.25-1.41-1.37-2.79-3-2.97-2.04-.23-3.14 1.9-3.25 2.33-.08.32.1.35.24.15.15-.2 1.4-1.35 2.84-1.19 1.43.16 2.58 1.02 3.17 2.84.59-1.82 1.74-2.68 3.17-2.84 1.44-.16 2.69 1 2.84 1.19.15.2.33.17.24-.15z" fill="#14509f" stroke="#fff" stroke-linecap="round" stroke-linejoin="round"/><path d="m718.37 123.39c-.08.32.1.35.24.15.07-.09.4-.41.87-.69l-.49-.55c-.37.46-.58.92-.63 1.09z" fill="#fff" stroke="#fff" stroke-linecap="round" stroke-linejoin="round"/><path d="m730.24 122.29-.49.55c.48.28.8.6.87.69.15.2.33.17.24-.15-.05-.18-.26-.63-.63-1.09z" fill="#fff" stroke="#fff" stroke-linecap="round" stroke-linejoin="round"/><path d="m517.28 85.48c-.11-.43-1.22-2.56-3.25-2.33-1.62.18-2.74 1.56-3 2.97-.25-1.41-1.37-2.79-3-2.97-2.04-.23-3.14 1.9-3.25 2.33-.08.32.1.35.24.15.15-.2 1.4-1.35 2.84-1.19 1.43.16 2.58 1.02 3.17 2.84.59-1.82 1.74-2.68 3.17-2.84 1.44-.16 2.69 1 2.84 1.19.15.2.33.17.24-.15z" fill="#14509f" stroke="#fff" stroke-linecap="round" stroke-linejoin="round"/><path d="m504.78 85.48c-.08.32.1.35.24.15.07-.09.4-.41.87-.69l-.49-.55c-.37.46-.58.92-.63 1.09z" fill="#fff" stroke="#fff" stroke-linecap="round" stroke-linejoin="round"/><path d="m516.66 84.38-.49.55c.48.28.8.6.87.69.15.2.33.17.24-.15-.05-.18-.26-.63-.63-1.09z" fill="#fff" stroke="#fff" stroke-linecap="round" stroke-linejoin="round"/><path d="m752.22 132c-.11-.43-1.22-2.56-3.25-2.33-1.62.18-2.74 1.56-3 2.97-.25-1.41-1.37-2.79-3-2.97-2.04-.23-3.14 1.9-3.25 2.33-.08.32.1.35.24.15.15-.2 1.4-1.35 2.84-1.19 1.43.16 2.58 1.02 3.17 2.84.59-1.82 1.74-2.68 3.17-2.84 1.44-.16 2.69 1 2.84 1.19.15.2.33.17.24-.15z" fill="#14509f" stroke="#fff" stroke-linecap="round" stroke-linejoin="round"/><path d="m739.72 132c-.08.32.1.35.24.15.07-.09.4-.41.87-.69l-.49-.55c-.37.46-.58.92-.63 1.09z" fill="#fff" stroke="#fff" stroke-linecap="round" stroke-linejoin="round"/><path d="m751.59 130.91-.49.55c.48.28.8.6.87.69.15.2.33.17.24-.15-.05-.18-.26-.63-.63-1.09z" fill="#fff" stroke="#fff" stroke-linecap="round" stroke-linejoin="round"/><path d="m303.46 94.61c-.11-.43-1.22-2.56-3.25-2.33-1.62.18-2.74 1.56-3 2.97-.25-1.41-1.37-2.79-3-2.97-2.04-.23-3.14 1.9-3.25 2.33-.08.32.1.35.24.15.15-.2 1.4-1.35 2.84-1.19 1.43.16 2.58 1.02 3.17 2.84.59-1.82 1.74-2.68 3.17-2.84 1.44-.16 2.69 1 2.84 1.19.15.2.33.17.24-.15z" fill="#14509f" stroke="#fff" stroke-linecap="round" stroke-linejoin="round"/><path d="m290.96 94.61c-.08.32.1.35.24.15.07-.09.4-.41.87-.69l-.49-.55c-.37.46-.58.92-.63 1.09z" fill="#fff" stroke="#fff" stroke-linecap="round" stroke-linejoin="round"/><path d="m302.83 93.52-.49.55c.48.28.8.6.87.69.15.2.33.17.24-.15-.05-.18-.26-.63-.63-1.09z" fill="#fff" stroke="#fff" stroke-linecap="round" stroke-linejoin="round"/><path d="m365.39 87.67c-.11-.43-1.22-2.56-3.25-2.33-1.62.18-2.74 1.56-3 2.97-.25-1.41-1.37-2.79-3-2.97-2.04-.23-3.14 1.9-3.25 2.33-.08.32.1.35.24.15.15-.2 1.4-1.35 2.84-1.19 1.43.16 2.58 1.02 3.17 2.84.59-1.82 1.74-2.68 3.17-2.84 1.44-.16 2.69 1 2.84 1.19.15.2.33.17.24-.15z" fill="#14509f" stroke="#fff" stroke-linecap="round" stroke-linejoin="round"/><g fill="#fff"><path d="m352.89 87.67c-.08.32.1.35.24.15.07-.09.4-.41.87-.69l-.49-.55c-.37.46-.58.92-.63 1.09z" stroke="#fff" stroke-linecap="round" stroke-linejoin="round"/><path d="m364.76 86.58-.49.55c.48.28.8.6.87.69.15.2.33.17.24-.15-.05-.18-.26-.63-.63-1.09z" stroke="#fff" stroke-linecap="round" stroke-linejoin="round"/><path d="m543.63 173.61h.08v.53h-.08z"/><path d="m543.55 173.61h.08v.53h-.08z"/><path d="m543.63 172.11h.08v1.34h-.08z"/><path d="m543.63 173.53v.08h.08v-.16h-.08z"/><path d="m543.55 172.11h.08v1.34h-.08z"/><path d="m543.63 171.42h.08v.53h-.08z"/><path d="m543.63 172.03v.08h.08v-.17h-.08z"/><path d="m543.55 171.42h.08v.53h-.08z"/><path d="m543.63 169.91h.08v1.34h-.08z"/><path d="m543.63 171.33v.09h.08v-.17h-.08z"/><path d="m543.55 169.91h.08v1.34h-.08z"/><path d="m543.63 169.22h.08v.53h-.08z"/><path d="m543.63 169.83v.08h.08v-.17h-.08z"/><path d="m543.55 169.22h.08v.53h-.08z"/><path d="m543.63 167.71h.08v1.34h-.08z"/><path d="m543.63 169.14v.08h.08v-.17h-.08z"/><path d="m543.55 167.71h.08v1.34h-.08z"/><path d="m543.63 167.02h.08v.53h-.08z"/><path d="m543.63 167.63v.08h.08v-.16h-.08z"/><path d="m543.55 167.02h.08v.53h-.08z"/><path d="m543.63 165.52h.08v1.34h-.08z"/><path d="m543.63 166.94v.08h.08v-.16h-.08z"/><path d="m543.55 165.52h.08v1.34h-.08z"/><path d="m543.63 164.82h.08v.53h-.08z"/><path d="m543.63 165.43v.09h.08v-.17h-.08z"/><path d="m543.55 164.82h.08v.53h-.08z"/><path d="m543.63 163.32h.08v1.34h-.08z"/><path d="m543.63 164.74v.08h.08v-.16h-.08z"/><path d="m543.55 163.32h.08v1.34h-.08z"/><path d="m543.63 162.63h.08v.53h-.08z"/><path d="m543.63 163.23v.09h.08v-.17h-.08z"/><path d="m543.55 162.63h.08v.53h-.08z"/><path d="m543.63 161.12h.08v1.34h-.08z"/><path d="m543.63 162.54v.09h.08v-.17h-.08z"/><path d="m543.55 161.12h.08v1.34h-.08z"/><path d="m543.63 160.43h.08v.53h-.08z"/><path d="m543.63 161.04v.08h.08v-.17h-.08z"/><path d="m543.55 160.43h.08v.53h-.08z"/><path d="m543.63 158.92h.08v1.34h-.08z"/><path d="m543.63 160.35v.08h.08v-.17h-.08z"/><path d="m543.55 158.92h.08v1.34h-.08z"/><path d="m543.63 158.23h.08v.53h-.08z"/><path d="m543.63 158.84v.08h.08v-.16h-.08z"/><path d="m543.55 158.23h.08v.53h-.08z"/><path d="m543.63 156.73h.08v1.34h-.08z"/><path d="m543.63 158.15v.08h.08v-.17h-.08z"/><path d="m543.55 156.73h.08v1.34h-.08z"/><path d="m543.63 156.03h.08v.53h-.08z"/><path d="m543.63 156.64v.09h.08v-.17h-.08z"/><path d="m543.55 156.03h.08v.53h-.08z"/><path d="m543.63 154.53h.08v1.34h-.08z"/><path d="m543.63 155.95v.08h.08v-.16h-.08z"/><path d="m543.55 154.53h.08v1.34h-.08z"/><path d="m543.63 153.84h.08v.53h-.08z"/><path d="m543.63 154.44v.09h.08v-.17h-.08z"/><path d="m543.55 153.84h.08v.53h-.08z"/><path d="m543.63 152.33h.08v1.34h-.08z"/><path d="m543.63 153.75v.09h.08v-.17h-.08z"/><path d="m543.55 152.33h.08v1.34h-.08z"/><path d="m543.63 151.64h.08v.53h-.08z"/><path d="m543.63 152.25v.08h.08v-.17h-.08z"/><path d="m543.55 151.64h.08v.53h-.08z"/><path d="m543.63 150.13h.08v1.34h-.08z"/><path d="m543.63 151.55v.09h.08v-.17h-.08z"/><path d="m543.55 150.13h.08v1.34h-.08z"/><path d="m543.63 149.44h.08v.53h-.08z"/><path d="m543.63 150.05v.08h.08v-.16h-.08z"/><path d="m543.55 149.44h.08v.53h-.08z"/><path d="m543.63 147.93h.08v1.34h-.08z"/><path d="m543.63 149.36v.08h.08v-.17h-.08z"/><path d="m543.55 147.93h.08v1.34h-.08z"/><path d="m543.63 147.24h.08v.53h-.08z"/><path d="m543.63 147.85v.08h.08v-.16h-.08z"/><path d="m543.55 147.24h.08v.53h-.08z"/><path d="m543.63 145.74h.08v1.34h-.08z"/><path d="m543.63 147.16v.08h.08v-.16h-.08z"/><path d="m543.55 145.74h.08v1.34h-.08z"/><path d="m543.63 145.04h.08v.53h-.08z"/><path d="m543.63 145.65v.09h.08v-.17h-.08z"/><path d="m543.55 145.04h.08v.53h-.08z"/><path d="m543.63 143.54h.08v1.34h-.08z"/><path d="m543.63 144.96v.08h.08v-.16h-.08z"/><path d="m543.55 143.54h.08v1.34h-.08z"/><path d="m543.63 142.85h.08v.53h-.08z"/><path d="m543.63 143.46v.08h.08v-.17h-.08z"/><path d="m543.55 142.85h.08v.53h-.08z"/><path d="m543.63 141.34h.08v1.34h-.08z"/><path d="m543.63 142.76v.09h.08v-.17h-.08z"/><path d="m543.55 141.34h.08v1.34h-.08z"/><path d="m543.63 140.65h.08v.53h-.08z"/><path d="m543.63 141.26v.08h.08v-.16h-.08z"/><path d="m543.55 140.65h.08v.53h-.08z"/><path d="m543.63 139.14h.08v1.34h-.08z"/><path d="m543.63 140.57v.08h.08v-.17h-.08z"/><path d="m543.55 139.14h.08v1.34h-.08z"/><path d="m543.63 138.45h.08v.53h-.08z"/><path d="m543.63 139.06v.08h.08v-.16h-.08z"/><path d="m543.55 138.45h.08v.53h-.08z"/><path d="m543.63 136.95h.08v1.34h-.08z"/><path d="m543.63 138.37v.08h.08v-.16h-.08z"/><path d="m543.55 136.95h.08v1.34h-.08z"/><path d="m543.63 136.25h.08v.53h-.08z"/><path d="m543.63 136.86v.09h.08v-.17h-.08z"/><path d="m543.55 136.25h.08v.53h-.08z"/><path d="m543.63 134.75h.08v1.34h-.08z"/><path d="m543.63 136.17v.08h.08v-.16h-.08z"/><path d="m543.55 134.75h.08v1.34h-.08z"/><path d="m543.63 134.06h.08v.53h-.08z"/><path d="m543.63 134.67v.08h.08v-.17h-.08z"/><path d="m543.55 134.06h.08v.53h-.08z"/><path d="m543.63 132.55h.08v1.34h-.08z"/><path d="m543.63 133.97v.09h.08v-.17h-.08z"/><path d="m543.55 132.55h.08v1.34h-.08z"/><path d="m543.63 131.86h.08v.53h-.08z"/><path d="m543.63 132.47v.08h.08v-.17h-.08z"/><path d="m543.55 131.86h.08v.53h-.08z"/><path d="m543.63 130.35h.08v1.34h-.08z"/><path d="m543.63 131.78v.08h.08v-.17h-.08z"/><path d="m543.55 130.35h.08v1.34h-.08z"/><path d="m543.63 129.66h.08v.53h-.08z"/><path d="m543.63 130.27v.08h.08v-.16h-.08z"/><path d="m543.55 129.66h.08v.53h-.08z"/><path d="m543.63 128.16h.08v1.34h-.08z"/><path d="m543.63 129.58v.08h.08v-.16h-.08z"/><path d="m543.55 128.16h.08v1.34h-.08z"/><path d="m543.63 127.46h.08v.53h-.08z"/><path d="m543.63 128.07v.09h.08v-.17h-.08z"/><path d="m543.55 127.46h.08v.53h-.08z"/><path d="m543.63 125.96h.08v1.34h-.08z"/><path d="m543.63 127.38v.08h.08v-.16h-.08z"/><path d="m543.55 125.96h.08v1.34h-.08z"/><path d="m543.63 125.27h.08v.53h-.08z"/><path d="m543.63 125.87v.09h.08v-.17h-.08z"/><path d="m543.55 125.27h.08v.53h-.08z"/><path d="m543.63 123.76h.08v1.34h-.08z"/><path d="m543.63 125.18v.09h.08v-.17h-.08z"/><path d="m543.55 123.76h.08v1.34h-.08z"/><path d="m543.63 123.07h.08v.53h-.08z"/><path d="m543.63 123.68v.08h.08v-.17h-.08z"/><path d="m543.55 123.07h.08v.53h-.08z"/><path d="m543.63 121.56h.08v1.34h-.08z"/><path d="m543.63 122.99v.08h.08v-.17h-.08z"/><path d="m543.55 121.56h.08v1.34h-.08z"/><path d="m543.63 120.87h.08v.53h-.08z"/><path d="m543.63 121.48v.08h.08v-.16h-.08z"/><path d="m543.55 120.87h.08v.53h-.08z"/><path d="m543.63 119.36h.08v1.34h-.08z"/><path d="m543.63 120.79v.08h.08v-.17h-.08z"/><path d="m543.55 119.36h.08v1.34h-.08z"/><path d="m543.63 118.67h.08v.53h-.08z"/><path d="m543.63 119.28v.08h.08v-.16h-.08z"/><path d="m543.55 118.67h.08v.53h-.08z"/><path d="m543.63 117.83v.68h.08v-4.41h-.08z"/><path d="m543.63 118.59v.08h.08v-.16h-.08z"/><path d="m543.63 114.02v.08h.08v-.16h-.08z"/><path d="m543.55 118.51h.08v-.68-3.73h-.08z"/><path d="m445.79 75.36c-2.51-1.78-5.63-3.99-11.31-3.99h-9.5v95.13h38.08v-89h-12.62c-1.64 0-3.03-.99-4.65-2.14zm17.11 90.97h-5.7v-2.13h5.7zm-9.37-9.6h-19.01v-1.97h19.01zm0 2.3h-19.01v-2.13h19.01zm0 1.35h-19.01v-1.18h19.01zm0 2.3h-19.01v-2.13h19.01zm0 1.35h-19.01v-1.18h19.01zm-28.38-9.27h5.7v1.97h-5.7zm0 2.14h5.7v2.13h-5.7zm0 2.3h5.7v1.18h-5.7zm0 1.35h5.7v2.13h-5.7zm0 2.3h5.7v1.18h-5.7zm0 1.35h5.7v2.13h-5.7zm5.86 2.13v-11.57h3.34v11.57zm3.51-2.13h19.01v2.13h-19.01zm19.18 2.13v-11.57h3.34v11.57zm9.2-2.3h-5.7v-1.18h5.7zm0-1.35h-5.7v-2.13h5.7zm0-2.3h-5.7v-1.18h5.7zm0-1.35h-5.7v-2.13h5.7zm0-2.3h-5.7v-1.97h5.7zm0-2.14h-37.75v-3.48h37.75zm0-3.65h-37.75v-1.34h37.75zm0-1.51h-37.75v-.53h37.75zm0-.69h-37.75v-1.34h37.75zm0-1.51h-37.75v-.53h37.75zm0-.69h-37.75v-1.34h37.75zm0-1.51h-37.75v-.53h37.75zm0-.69h-37.75v-1.34h37.75zm0-1.51h-37.75v-.53h37.75zm0-.69h-37.75v-1.34h37.75zm0-1.51h-37.75v-.53h37.75zm0-.69h-37.75v-1.34h37.75zm0-1.51h-37.75v-.53h37.75zm0-.69h-37.75v-1.34h37.75zm0-1.51h-37.75v-.53h37.75zm0-.69h-37.75v-1.34h37.75zm0-1.51h-37.75v-.53h37.75zm0-.69h-37.75v-1.34h37.75zm0-1.51h-37.75v-.53h37.75zm0-.69h-37.75v-1.34h37.75zm0-1.51h-37.75v-.53h37.75zm0-.69h-37.75v-1.34h37.75zm0-1.51h-37.75v-.53h37.75zm0-.69h-37.75v-1.34h37.75zm0-1.51h-37.75v-.53h37.75zm0-.69h-37.75v-1.34h37.75zm0-1.51h-37.75v-.53h37.75zm0-.69h-37.75v-1.34h37.75zm0-1.51h-37.75v-.53h37.75zm0-.69h-37.75v-1.34h37.75zm0-1.51h-37.75v-.53h37.75zm0-.69h-37.75v-1.34h37.75zm0-1.51h-37.75v-.53h37.75zm0-.69h-37.75v-1.34h37.75zm0-1.51h-37.75v-.53h37.75zm0-.69h-37.75v-1.34h37.75zm0-1.51h-37.75v-.53h37.75zm0-.69h-37.75v-1.34h37.75zm0-1.51h-37.75v-.53h37.75zm0-.69h-37.75v-1.34h37.75zm0-1.51h-37.75v-.53h37.75zm0-.69h-37.75v-1.34h37.75zm0-1.51h-37.75v-.53h37.75zm0-.69h-37.75v-1.34h37.75zm0-1.51h-37.75v-.53h37.75zm0-.69h-37.75v-1.34h37.75zm0-1.51h-37.75v-.53h37.75zm0-.69h-37.75v-1.34h37.75zm0-1.51h-37.75v-.53h37.75zm0-.69h-37.75v-1.34h37.75zm0-1.51h-37.75v-.53h37.75zm0-.69h-37.75v-1.34h37.75zm0-1.51h-37.75v-.53h37.75zm0-.69h-37.75v-1.34h37.75zm0-1.51h-37.75v-.53h37.75zm0-.69h-37.75v-1.34h37.75zm0-1.51h-37.75v-.53h37.75zm0-.69h-37.75v-1.34h37.75zm0-1.51h-37.75v-.53h37.75zm0-.69h-37.75v-1.34h37.75zm0-1.51h-37.75v-.53h37.75zm0-.69h-37.75v-1.34h37.75zm0-1.51h-37.75v-.53h37.75zm0-.69h-37.75v-10.53h9.33c5.63 0 8.73 2.19 11.21 3.96 1.64 1.16 3.06 2.17 4.75 2.17h12.46zm0-4.57h-12.46c-1.64 0-3.03-.99-4.65-2.14-2.51-1.78-5.63-3.99-11.31-3.99h-9.33v-.59h9.33c5.63 0 8.73 2.19 11.21 3.96 1.64 1.16 3.06 2.17 4.75 2.17h12.46z"/><path d="m486.11 93.2c-2.51-1.78-5.63-3.99-11.31-3.99h-9.5v95.13h38.08v-89h-12.62c-1.64 0-3.03-.99-4.65-2.14zm17.11 90.97h-5.7v-2.13h5.7zm-9.37-9.6h-19.01v-1.97h19.01zm0 2.3h-19.01v-2.13h19.01zm0 1.35h-19.01v-1.18h19.01zm0 2.3h-19.01v-2.13h19.01zm0 1.35h-19.01v-1.18h19.01zm-28.38-9.27h5.7v1.97h-5.7zm0 2.14h5.7v2.13h-5.7zm0 2.3h5.7v1.18h-5.7zm0 1.35h5.7v2.13h-5.7zm0 2.3h5.7v1.18h-5.7zm0 1.35h5.7v2.13h-5.7zm5.86 2.13v-11.57h3.34v11.57zm3.51-2.13h19.01v2.13h-19.01zm19.18 2.13v-11.57h3.34v11.57zm9.2-2.3h-5.7v-1.18h5.7zm0-1.35h-5.7v-2.13h5.7zm0-2.3h-5.7v-1.18h5.7zm0-1.35h-5.7v-2.13h5.7zm0-2.3h-5.7v-1.97h5.7zm0-2.14h-37.75v-3.48h37.75zm0-3.65h-37.75v-1.34h37.75zm0-1.51h-37.75v-.53h37.75zm0-.69h-37.75v-1.34h37.75zm0-1.51h-37.75v-.53h37.75zm0-.69h-37.75v-1.34h37.75zm0-1.51h-37.75v-.53h37.75zm0-.69h-37.75v-1.34h37.75zm0-1.51h-37.75v-.53h37.75zm0-.69h-37.75v-1.34h37.75zm0-1.51h-37.75v-.53h37.75zm0-.69h-37.75v-1.34h37.75zm0-1.51h-37.75v-.53h37.75zm0-.69h-37.75v-1.34h37.75zm0-1.51h-37.75v-.53h37.75zm0-.69h-37.75v-1.34h37.75zm0-1.51h-37.75v-.53h37.75zm0-.69h-37.75v-1.34h37.75zm0-1.51h-37.75v-.53h37.75zm0-.69h-37.75v-1.34h37.75zm0-1.51h-37.75v-.53h37.75zm0-.69h-37.75v-1.34h37.75zm0-1.51h-37.75v-.53h37.75zm0-.69h-37.75v-1.34h37.75zm0-1.51h-37.75v-.53h37.75zm0-.69h-37.75v-1.34h37.75zm0-1.51h-37.75v-.53h37.75zm0-.69h-37.75v-1.34h37.75zm0-1.51h-37.75v-.53h37.75zm0-.69h-37.75v-1.34h37.75zm0-1.51h-37.75v-.53h37.75zm0-.69h-37.75v-1.34h37.75zm0-1.51h-37.75v-.53h37.75zm0-.69h-37.75v-1.34h37.75zm0-1.51h-37.75v-.53h37.75zm0-.69h-37.75v-1.34h37.75zm0-1.51h-37.75v-.53h37.75zm0-.69h-37.75v-1.34h37.75zm0-1.51h-37.75v-.53h37.75zm0-.69h-37.75v-1.34h37.75zm0-1.51h-37.75v-.53h37.75zm0-.69h-37.75v-1.34h37.75zm0-1.51h-37.75v-.53h37.75zm0-.69h-37.75v-1.34h37.75zm0-1.51h-37.75v-.53h37.75zm0-.69h-37.75v-1.34h37.75zm0-1.51h-37.75v-.53h37.75zm0-.69h-37.75v-1.34h37.75zm0-1.51h-37.75v-.53h37.75zm0-.69h-37.75v-1.34h37.75zm0-1.51h-37.75v-.53h37.75zm0-.69h-37.75v-1.34h37.75zm0-1.51h-37.75v-.53h37.75zm0-.69h-37.75v-1.34h37.75zm0-1.51h-37.75v-.53h37.75zm0-.69h-37.75v-1.34h37.75zm0-1.51h-37.75v-.53h37.75zm0-.69h-37.75v-1.34h37.75zm0-1.51h-37.75v-.53h37.75zm0-.69h-37.75v-1.34h37.75zm0-1.51h-37.75v-.53h37.75zm0-.69h-37.75v-1.34h37.75zm0-1.51h-37.75v-.53h37.75zm0-.69h-37.75v-10.53h9.33c5.63 0 8.73 2.19 11.21 3.96 1.64 1.16 3.06 2.17 4.75 2.17h12.46zm0-4.57h-12.46c-1.64 0-3.03-.99-4.65-2.14-2.51-1.78-5.63-3.99-11.31-3.99h-9.33v-.59h9.33c5.63 0 8.73 2.19 11.21 3.96 1.64 1.16 3.06 2.17 4.75 2.17h12.46z"/><path d="m515.13 107.98c5.63 0 8.73 2.19 11.21 3.96 1.64 1.16 3.06 2.17 4.75 2.17h12.54v-.17h.08v-.75h-12.62c-1.64 0-3.03-.99-4.65-2.14-2.51-1.78-5.63-3.99-11.31-3.99h-9.5v95.13h38.08v-2.3h-.08v-.17h-5.78v-1.18h5.78v-.17h-5.78v-2.13h5.78v-.17h-5.78v-1.18h5.78v-.17h-5.78v-2.13h5.78v-.17h-5.78v-1.97h5.78v-.17h-5.93v-3.48h5.93v-.17h-37.83v-1.34h37.83v-.17h-37.83v-.53h37.83v-.17h-37.83v-1.34h37.83v-.17h-37.83v-.53h37.83v-.17h-37.83v-1.34h37.83v-.17h-37.83v-.53h37.83v-.17h-37.83v-1.34h37.83v-.17h-37.83v-.53h37.83v-.17h-37.83v-1.34h37.83v-.17h-37.83v-.53h37.83v-.17h-37.83v-1.34h37.83v-.17h-37.83v-.53h37.83v-.17h-37.83v-1.34h37.83v-.17h-37.83v-.53h37.83v-.17h-37.83v-1.34h37.83v-.17h-37.83v-.53h37.83v-.17h-37.83v-1.34h37.83v-.17h-37.83v-.53h37.83v-.17h-37.83v-1.34h37.83v-.17h-37.83v-.53h37.83v-.17h-37.83v-1.34h37.83v-.17h-37.83v-.53h37.83v-.17h-37.83v-1.34h37.83v-.17h-37.83v-.53h37.83v-.17h-37.83v-1.34h37.83v-.17h-37.83v-.53h37.83v-.17h-37.83v-1.34h37.83v-.17h-37.83v-.53h37.83v-.17h-37.83v-1.34h37.83v-.17h-37.83v-.53h37.83v-.17h-37.83v-1.34h37.83v-.17h-37.83v-.53h37.83v-.17h-37.83v-1.34h37.83v-.17h-37.83v-.53h37.83v-.17h-37.83v-1.34h37.83v-.17h-37.83v-.53h37.83v-.17h-37.83v-1.34h37.83v-.17h-37.83v-.53h37.83v-.17h-37.83v-1.34h37.83v-.17h-37.83v-.53h37.83v-.17h-37.83v-1.34h37.83v-.17h-37.83v-.53h37.83v-.17h-37.83v-1.34h37.83v-.17h-37.83v-.53h37.83v-.17h-37.83v-1.34h37.83v-.17h-37.83v-.53h37.83v-.17h-37.83v-1.34h37.83v-.17h-37.83v-.53h37.83v-.17h-37.83v-1.34h37.83v-.17h-37.83v-.53h37.83v-.17h-37.83v-1.34h37.83v-.17h-37.83v-.53h37.83v-.17h-37.83v-1.34h37.83v-.17h-37.83v-.53h37.83v-.17h-37.83v-1.34h37.83v-.17h-37.83v-.53h37.83v-.17h-37.83v-1.34h37.83v-.17h-37.83v-.53h37.83v-.17h-37.83v-1.34h37.83v-.17h-37.83v-.53h37.83v-.17h-37.83v-1.34h37.83v-.17h-37.83v-.53h37.83v-.17h-37.83v-10.53h9.33zm15.96 5.96c-1.64 0-3.03-.99-4.65-2.14-2.51-1.78-5.63-3.99-11.31-3.99h-9.33v-.59h9.33c5.63 0 8.73 2.19 11.21 3.96 1.64 1.16 3.06 2.17 4.75 2.17h12.46v.59zm6.45 72.86v11.57h-3.34v-11.57zm.15 13v2.22h-3.34v-3.48h3.34v1.27zm-3.51-.08h-19.01v-1.18h19.01zm-19.01-3.48h18.86v2.13h-18.86zm0-1.35h18.86v1.18h-18.86zm0-2.3h18.86v2.13h-18.86zm18.86-.17h-18.86v-1.97h18.86zm-28.23-1.97h5.7v1.97h-5.7zm0 2.14h5.7v2.13h-5.7zm0 2.3h5.7v1.18h-5.7zm0 1.35h5.7v2.13h-5.7zm0 2.3h5.7v1.18h-5.7zm0 1.35h5.7v2.13h-5.7zm5.86 2.13v-11.57h3.34v11.57zm3.51-2.13h19.01v2.13h-19.01zm18.86-9.6h-28.23v-3.48h28.23zm9.52 11.74h-5.7v-2.13h5.7z"/><path d="m278.87 88.03v-3.32h-27.99v3.32h-2.37v99.27h32.73v-99.27zm2.2 99.11h-1.57v-92.94h-2.61v-3.79h-24.03v3.79h-2.61v92.94h-1.57v-98.94h32.39zm-4.18 0v-92.78h2.44v92.78zm-1.29 0v-96.57h1.12v96.57zm-25.18-92.78h2.44v92.78h-2.44zm2.61 0v-3.79h1.12v96.57h-1.12zm1.29 92.78v-96.57h21.12v96.57zm-3.27-102.26h27.65v3.15h-27.65z"/><path d="m255.42 94.2v1.54h18.92v-2.17h-18.92zm.17 0v-.47h18.59v1.84h-18.59z"/><path d="m255.42 99.64h18.92v-2.17h-18.92zm.17-2h18.59v1.84h-18.59z"/><path d="m255.42 103.55h18.92v-2.17h-18.92zm.17-2h18.59v1.84h-18.59z"/><path d="m255.42 107.46h18.92v-2.17h-18.92zm.17-2h18.59v1.84h-18.59z"/><path d="m255.42 111.37h18.92v-2.17h-18.92zm.17-2h18.59v1.84h-18.59z"/><path d="m255.42 115.28h18.92v-2.17h-18.92zm.17-2h18.59v1.84h-18.59z"/><path d="m255.42 119.19h18.92v-2.17h-18.92zm.17-2h18.59v1.84h-18.59z"/><path d="m255.42 123.1h18.92v-2.17h-18.92zm.17-2h18.59v1.84h-18.59z"/><path d="m255.42 127.01h18.92v-2.17h-18.92zm.17-2h18.59v1.84h-18.59z"/><path d="m255.42 130.91h18.92v-2.17h-18.92zm.17-2h18.59v1.84h-18.59z"/><path d="m255.42 134.82h18.92v-2.17h-18.92zm.17-2h18.59v1.84h-18.59z"/><path d="m255.42 138.73h18.92v-2.17h-18.92zm.17-2h18.59v1.84h-18.59z"/><path d="m255.42 142.64h18.92v-2.17h-18.92zm.17-2h18.59v1.84h-18.59z"/><path d="m255.42 146.55h18.92v-2.17h-18.92zm.17-2h18.59v1.84h-18.59z"/><path d="m255.42 150.46h18.92v-2.17h-18.92zm.17-2h18.59v1.84h-18.59z"/><path d="m255.42 154.37h18.92v-2.17h-18.92zm.17-2h18.59v1.84h-18.59z"/><path d="m255.42 158.28h18.92v-2.17h-18.92zm.17-2h18.59v1.84h-18.59z"/><path d="m255.42 162.19h18.92v-2.17h-18.92zm.17-2h18.59v1.84h-18.59z"/><path d="m255.42 166.1h18.92v-2.17h-18.92zm.17-2h18.59v1.84h-18.59z"/><path d="m255.42 170.01h18.92v-2.17h-18.92zm.17-2h18.59v1.84h-18.59z"/><path d="m255.42 173.92h18.92v-2.17h-18.92zm.17-2h18.59v1.84h-18.59z"/><path d="m180.36 173.27h9.67v-1.51h-9.67zm.17-1.34h9.34v1.18h-9.34z"/><path d="m180.36 171.17h9.67v-1.51h-9.67zm.17-1.34h9.34v1.18h-9.34z"/><path d="m180.36 169.07h9.67v-1.51h-9.67zm.17-1.34h9.34v1.18h-9.34z"/><path d="m180.36 166.97h9.67v-1.51h-9.67zm.17-1.34h9.34v1.18h-9.34z"/><path d="m180.36 164.87h9.67v-1.51h-9.67zm.17-1.34h9.34v1.18h-9.34z"/><path d="m180.36 162.77h9.67v-1.51h-9.67zm.17-1.34h9.34v1.18h-9.34z"/><path d="m180.36 160.66h9.67v-1.51h-9.67zm.17-1.34h9.34v1.18h-9.34z"/><path d="m180.36 158.56h9.67v-1.51h-9.67zm.17-1.34h9.34v1.18h-9.34z"/><path d="m180.36 156.46h9.67v-1.51h-9.67zm.17-1.34h9.34v1.18h-9.34z"/><path d="m180.36 154.36h9.67v-1.51h-9.67zm.17-1.34h9.34v1.18h-9.34z"/><path d="m180.36 152.26h9.67v-1.51h-9.67zm.17-1.34h9.34v1.18h-9.34z"/><path d="m180.36 150.16h9.67v-1.51h-9.67zm.17-1.34h9.34v1.18h-9.34z"/><path d="m180.36 148.06h9.67v-1.51h-9.67zm.17-1.34h9.34v1.18h-9.34z"/><path d="m180.36 145.96h9.67v-1.51h-9.67zm.17-1.34h9.34v1.18h-9.34z"/><path d="m180.36 143.85h9.67v-1.51h-9.67zm.17-1.34h9.34v1.18h-9.34z"/><path d="m180.36 141.75h9.67v-1.51h-9.67zm.17-1.34h9.34v1.18h-9.34z"/><path d="m180.36 139.65h9.67v-1.51h-9.67zm.17-1.34h9.34v1.18h-9.34z"/><path d="m180.36 137.55h9.67v-1.51h-9.67zm.17-1.34h9.34v1.18h-9.34z"/><path d="m180.36 135.45h9.67v-1.51h-9.67zm.17-1.34h9.34v1.18h-9.34z"/><path d="m180.36 133.35h9.67v-1.51h-9.67zm.17-1.34h9.34v1.18h-9.34z"/><path d="m180.36 131.25h9.67v-1.51h-9.67zm.17-1.34h9.34v1.18h-9.34z"/><path d="m180.36 129.15h9.67v-1.51h-9.67zm.17-1.34h9.34v1.18h-9.34z"/><path d="m180.36 127.04h9.67v-1.51h-9.67zm.17-1.34h9.34v1.18h-9.34z"/><path d="m180.36 124.94h9.67v-1.51h-9.67zm.17-1.34h9.34v1.18h-9.34z"/><path d="m180.36 122.84h9.67v-1.51h-9.67zm.17-1.34h9.34v1.18h-9.34z"/><path d="m180.36 120.74h9.67v-1.51h-9.67zm.17-1.34h9.34v1.18h-9.34z"/><path d="m180.36 118.64h9.67v-1.51h-9.67zm.17-1.34h9.34v1.18h-9.34z"/><path d="m180.36 116.54h9.67v-1.51h-9.67zm.17-1.34h9.34v1.18h-9.34z"/><path d="m180.36 114.44h9.67v-1.51h-9.67zm.17-1.34h9.34v1.18h-9.34z"/><path d="m180.36 112.34h9.67v-1.51h-9.67zm.17-1.34h9.34v1.18h-9.34z"/><path d="m180.36 110.23h9.67v-1.51h-9.67zm.17-1.34h9.34v1.18h-9.34z"/><path d="m180.36 108.13h9.67v-1.51h-9.67zm.17-1.34h9.34v1.18h-9.34z"/><path d="m180.36 106.03h9.67v-1.51h-9.67zm.17-1.34h9.34v1.18h-9.34z"/><path d="m180.36 103.93h9.67v-1.51h-9.67zm.17-1.34h9.34v1.18h-9.34z"/><path d="m180.36 101.83h9.67v-1.51h-9.67zm.17-1.34h9.34v1.18h-9.34z"/><path d="m180.36 99.73h9.67v-1.51h-9.67zm.17-1.34h9.34v1.18h-9.34z"/><path d="m180.36 97.63h9.67v-1.51h-9.67zm.17-1.34h9.34v1.18h-9.34z"/><path d="m180.36 95.53h9.67v-1.51h-9.67zm.17-1.34h9.34v1.18h-9.34z"/><path d="m180.36 93.43h9.67v-1.51h-9.67zm.17-1.34h9.34v1.18h-9.34z"/><path d="m180.36 91.32h9.67v-1.51h-9.67zm.17-1.34h9.34v1.18h-9.34z"/><path d="m191.62 85.45v5.71h-.81v-5.71h-11.23v5.71h-.81v-5.71h-8.06v101.85h28.96v-101.85h-8.06zm7.89 101.69h-7.72v-101.52h7.72zm-8.87 0h-10.89v-101.52h10.89zm.17-95.81h.81v95.81h-.81zm-12.2 95.81h-7.72v-101.52h7.72zm.17-95.81h.81v95.81h-.81z"/><path d="m199.12 171.76h-6.95v1.51h6.95zm-.17 1.34h-6.62v-1.18h6.62z"/><path d="m199.12 169.66h-6.95v1.51h6.95zm-.17 1.34h-6.62v-1.18h6.62z"/><path d="m199.12 167.56h-6.95v1.51h6.95zm-.17 1.34h-6.62v-1.18h6.62z"/><path d="m199.12 165.46h-6.95v1.51h6.95zm-.17 1.34h-6.62v-1.18h6.62z"/><path d="m199.12 163.36h-6.95v1.51h6.95zm-.17 1.34h-6.62v-1.18h6.62z"/><path d="m199.12 161.26h-6.95v1.51h6.95zm-.17 1.34h-6.62v-1.18h6.62z"/><path d="m199.12 159.15h-6.95v1.51h6.95zm-.17 1.34h-6.62v-1.18h6.62z"/><path d="m199.12 157.05h-6.95v1.51h6.95zm-.17 1.34h-6.62v-1.18h6.62z"/><path d="m199.12 154.95h-6.95v1.51h6.95zm-.17 1.34h-6.62v-1.18h6.62z"/><path d="m199.12 152.85h-6.95v1.51h6.95zm-.17 1.34h-6.62v-1.18h6.62z"/><path d="m199.12 150.75h-6.95v1.51h6.95zm-.17 1.34h-6.62v-1.18h6.62z"/><path d="m199.12 148.65h-6.95v1.51h6.95zm-.17 1.34h-6.62v-1.18h6.62z"/><path d="m199.12 146.55h-6.95v1.51h6.95zm-.17 1.34h-6.62v-1.18h6.62z"/><path d="m199.12 144.45h-6.95v1.51h6.95zm-.17 1.34h-6.62v-1.18h6.62z"/><path d="m199.12 142.35h-6.95v1.51h6.95zm-.17 1.34h-6.62v-1.18h6.62z"/><path d="m199.12 140.24h-6.95v1.51h6.95zm-.17 1.34h-6.62v-1.18h6.62z"/><path d="m199.12 138.14h-6.95v1.51h6.95zm-.17 1.34h-6.62v-1.18h6.62z"/><path d="m199.12 136.04h-6.95v1.51h6.95zm-.17 1.34h-6.62v-1.18h6.62z"/><path d="m199.12 133.94h-6.95v1.51h6.95zm-.17 1.34h-6.62v-1.18h6.62z"/><path d="m199.12 131.84h-6.95v1.51h6.95zm-.17 1.34h-6.62v-1.18h6.62z"/><path d="m199.12 129.74h-6.95v1.51h6.95zm-.17 1.34h-6.62v-1.18h6.62z"/><path d="m199.12 127.64h-6.95v1.51h6.95zm-.17 1.34h-6.62v-1.18h6.62z"/><path d="m199.12 125.54h-6.95v1.51h6.95zm-.17 1.34h-6.62v-1.18h6.62z"/><path d="m199.12 123.43h-6.95v1.51h6.95zm-.17 1.34h-6.62v-1.18h6.62z"/><path d="m199.12 121.33h-6.95v1.51h6.95zm-.17 1.34h-6.62v-1.18h6.62z"/><path d="m199.12 119.23h-6.95v1.51h6.95zm-.17 1.34h-6.62v-1.18h6.62z"/><path d="m199.12 117.13h-6.95v1.51h6.95zm-.17 1.34h-6.62v-1.18h6.62z"/><path d="m199.12 115.03h-6.95v1.51h6.95zm-.17 1.34h-6.62v-1.18h6.62z"/><path d="m199.12 112.93h-6.95v1.51h6.95zm-.17 1.34h-6.62v-1.18h6.62z"/><path d="m199.12 110.83h-6.95v1.51h6.95zm-.17 1.34h-6.62v-1.18h6.62z"/><path d="m199.12 108.73h-6.95v1.51h6.95zm-.17 1.34h-6.62v-1.18h6.62z"/><path d="m199.12 106.62h-6.95v1.51h6.95zm-.17 1.34h-6.62v-1.18h6.62z"/><path d="m199.12 104.52h-6.95v1.51h6.95zm-.17 1.34h-6.62v-1.18h6.62z"/><path d="m199.12 102.42h-6.95v1.51h6.95zm-.17 1.34h-6.62v-1.18h6.62z"/><path d="m199.12 100.32h-6.95v1.51h6.95zm-.17 1.34h-6.62v-1.18h6.62z"/><path d="m199.12 98.22h-6.95v1.51h6.95zm-.17 1.34h-6.62v-1.18h6.62z"/><path d="m199.12 96.12h-6.95v1.51h6.95zm-.17 1.34h-6.62v-1.18h6.62z"/><path d="m199.12 94.02h-6.95v1.51h6.95zm-.17 1.34h-6.62v-1.18h6.62z"/><path d="m199.12 91.92h-6.95v1.51h6.95zm-.17 1.34h-6.62v-1.18h6.62z"/><path d="m199.12 89.82h-6.95v1.51h6.95zm-.17 1.34h-6.62v-1.18h6.62z"/><path d="m171.27 173.27h6.95v-1.51h-6.95zm.17-1.34h6.62v1.18h-6.62z"/><path d="m171.27 171.17h6.95v-1.51h-6.95zm.17-1.34h6.62v1.18h-6.62z"/><path d="m171.27 169.07h6.95v-1.51h-6.95zm.17-1.34h6.62v1.18h-6.62z"/><path d="m171.27 166.97h6.95v-1.51h-6.95zm.17-1.34h6.62v1.18h-6.62z"/><path d="m171.27 164.87h6.95v-1.51h-6.95zm.17-1.34h6.62v1.18h-6.62z"/><path d="m171.27 162.77h6.95v-1.51h-6.95zm.17-1.34h6.62v1.18h-6.62z"/><path d="m171.27 160.66h6.95v-1.51h-6.95zm.17-1.34h6.62v1.18h-6.62z"/><path d="m171.27 158.56h6.95v-1.51h-6.95zm.17-1.34h6.62v1.18h-6.62z"/><path d="m171.27 156.46h6.95v-1.51h-6.95zm.17-1.34h6.62v1.18h-6.62z"/><path d="m171.27 154.36h6.95v-1.51h-6.95zm.17-1.34h6.62v1.18h-6.62z"/><path d="m171.27 152.26h6.95v-1.51h-6.95zm.17-1.34h6.62v1.18h-6.62z"/><path d="m171.27 150.16h6.95v-1.51h-6.95zm.17-1.34h6.62v1.18h-6.62z"/><path d="m171.27 148.06h6.95v-1.51h-6.95zm.17-1.34h6.62v1.18h-6.62z"/><path d="m171.27 145.96h6.95v-1.51h-6.95zm.17-1.34h6.62v1.18h-6.62z"/><path d="m171.27 143.85h6.95v-1.51h-6.95zm.17-1.34h6.62v1.18h-6.62z"/><path d="m171.27 141.75h6.95v-1.51h-6.95zm.17-1.34h6.62v1.18h-6.62z"/><path d="m171.27 139.65h6.95v-1.51h-6.95zm.17-1.34h6.62v1.18h-6.62z"/><path d="m171.27 137.55h6.95v-1.51h-6.95zm.17-1.34h6.62v1.18h-6.62z"/><path d="m171.27 135.45h6.95v-1.51h-6.95zm.17-1.34h6.62v1.18h-6.62z"/><path d="m171.27 133.35h6.95v-1.51h-6.95zm.17-1.34h6.62v1.18h-6.62z"/><path d="m171.27 131.25h6.95v-1.51h-6.95zm.17-1.34h6.62v1.18h-6.62z"/><path d="m171.27 129.15h6.95v-1.51h-6.95zm.17-1.34h6.62v1.18h-6.62z"/><path d="m171.27 127.04h6.95v-1.51h-6.95zm.17-1.34h6.62v1.18h-6.62z"/><path d="m171.27 124.94h6.95v-1.51h-6.95zm.17-1.34h6.62v1.18h-6.62z"/><path d="m171.27 122.84h6.95v-1.51h-6.95zm.17-1.34h6.62v1.18h-6.62z"/><path d="m171.27 120.74h6.95v-1.51h-6.95zm.17-1.34h6.62v1.18h-6.62z"/><path d="m171.27 118.64h6.95v-1.51h-6.95zm.17-1.34h6.62v1.18h-6.62z"/><path d="m171.27 116.54h6.95v-1.51h-6.95zm.17-1.34h6.62v1.18h-6.62z"/><path d="m171.27 114.44h6.95v-1.51h-6.95zm.17-1.34h6.62v1.18h-6.62z"/><path d="m171.27 112.34h6.95v-1.51h-6.95zm.17-1.34h6.62v1.18h-6.62z"/><path d="m171.27 110.23h6.95v-1.51h-6.95zm.17-1.34h6.62v1.18h-6.62z"/><path d="m171.27 108.13h6.95v-1.51h-6.95zm.17-1.34h6.62v1.18h-6.62z"/><path d="m171.27 106.03h6.95v-1.51h-6.95zm.17-1.34h6.62v1.18h-6.62z"/><path d="m171.27 103.93h6.95v-1.51h-6.95zm.17-1.34h6.62v1.18h-6.62z"/><path d="m171.27 101.83h6.95v-1.51h-6.95zm.17-1.34h6.62v1.18h-6.62z"/><path d="m171.27 99.73h6.95v-1.51h-6.95zm.17-1.34h6.62v1.18h-6.62z"/><path d="m171.27 97.63h6.95v-1.51h-6.95zm.17-1.34h6.62v1.18h-6.62z"/><path d="m171.27 95.53h6.95v-1.51h-6.95zm.17-1.34h6.62v1.18h-6.62z"/><path d="m171.27 93.43h6.95v-1.51h-6.95zm.17-1.34h6.62v1.18h-6.62z"/><path d="m171.27 91.32h6.95v-1.51h-6.95zm.17-1.34h6.62v1.18h-6.62z"/><path d="m241.76 155.76v-.08l-2.78-53.83v-.08h-.67l-2.23-43.14v-6h-.08v-46.71h-5.94v46.71h-1.86v-2.11h1.57v-.83h-1.57v-.83l1.57-.04v-.83l-1.57.04v-.83l1.57-.08v-.83l-1.57.08v-.83l1.57-.12v-.83l-1.57.12v-.83l1.57-.17v-.83l-1.57.17v-.83l1.57-.21v-.83l-1.57.21v-.83l1.57-.25v-.83l-1.57.25v-.83l1.57-.29v-.83l-1.57.29v-.83l1.57-.33v-.83l-1.57.33v-.83l1.57-.37v-.84l-1.57.37v-.83l1.57-.41v-.84l-1.57.41v-.82l1.57-.46v-.84l-1.57.46v-.82l1.57-.5v-.84l-1.57.5v-.82l1.57-.54v-.84l-1.57.54v-.82l1.57-.58v-.84l-1.57.58v-.82l1.57-.62v-.84l-1.57.62v-.82l1.57-.66v-.85l-1.57.66v-.81l1.57-.7v-.85l-1.57.7v-.81l1.57-.74v-.85l-1.57.74v-.81l1.57-.79v-.85l-1.57.79v-.81l1.57-.83v-.86l-1.57.83v-.8l1.57-.87v-.86l-1.57.87v-.8l1.57-.91v-.86l-1.57.91v-.8l1.57-.95v-.86l-1.57.95v-4.26h-7.83v4.26l-1.57-.95v.86l1.57.95v.8l-1.57-.91v.86l1.57.91v.8l-1.57-.87v.86l1.57.87v.8l-1.57-.83v.86l1.57.83v.81l-1.57-.79v.85l1.57.79v.81l-1.57-.74v.85l1.57.74v.81l-1.57-.7v.85l1.57.7v.81l-1.57-.66v.85l1.57.66v.82l-1.57-.62v.84l1.57.62v.82l-1.57-.58v.84l1.57.58v.82l-1.57-.54v.84l1.57.54v.82l-1.57-.5v.84l1.57.5v.82l-1.57-.46v.84l1.57.46v.82l-1.57-.41v.84l1.57.41v.83l-1.57-.37v.84l1.57.37v.83l-1.57-.33v.83l1.57.33v.83l-1.57-.29v.83l1.57.29v.83l-1.57-.25v.83l1.57.25v.83l-1.57-.21v.83l1.57.21v.83l-1.57-.17v.83l1.57.17v.83l-1.57-.12v.83l1.57.12v.83l-1.57-.08v.83l1.57.08v.83l-1.57-.04v.83l1.57.04v.83h-1.57v.83h1.57v2.11h-1.95v-46.71h-5.94v52.71l-2.23 43.13h-.67l-2.79 53.91v.17s0 0 0 0v18.15h34.96v-18.15-.08zm-13.54-105.87h1.33v.43h-1.33zm0-1.66 1.33-.04v.43l-1.33.04zm0-1.66 1.33-.07v.43l-1.33.07zm0-1.66 1.33-.11v.43l-1.33.11zm0-1.66 1.33-.14v.43l-1.33.14zm0-1.66 1.33-.18v.43l-1.33.18zm0-1.66 1.33-.21v.43l-1.33.21zm0-1.66 1.33-.25v.43l-1.33.25zm0-1.66 1.33-.28v.43l-1.33.28zm0-1.66 1.33-.32v.42l-1.33.32zm0-1.66 1.33-.35v.42l-1.33.35zm0-1.66 1.33-.39v.42l-1.33.39zm0-1.66 1.33-.42v.42l-1.33.42zm0-1.66 1.33-.46v.42l-1.33.46zm0-1.66 1.33-.49v.42l-1.33.49zm0-1.66 1.33-.53v.41l-1.33.53zm0-1.66 1.33-.56v.41l-1.33.56zm0-1.66 1.33-.6v.41l-1.33.6zm0-1.66 1.33-.63v.41l-1.33.63zm0-1.66 1.33-.67v.41l-1.33.67zm0-1.66 1.33-.7v.4l-1.33.7zm0-1.66 1.33-.74v.4l-1.33.74zm0-1.66 1.33-.77v.4l-1.33.77zm0-1.66 1.33-.81v.4l-1.33.81zm-7.89.4-1.33-.81v-.4l1.33.81zm0 1.66-1.33-.77v-.4l1.33.77zm0 1.66-1.33-.74v-.4l1.33.74zm0 1.66-1.33-.7v-.4l1.33.7zm0 1.66-1.33-.67v-.41l1.33.67zm0 1.66-1.33-.63v-.41l1.33.63zm0 1.66-1.33-.6v-.41l1.33.6zm0 1.66-1.33-.56v-.41l1.33.56zm0 1.66-1.33-.53v-.41l1.33.53zm0 1.66-1.33-.49v-.42l1.33.49zm0 1.66-1.33-.46v-.42l1.33.46zm0 1.66-1.33-.42v-.42l1.33.42zm0 1.66-1.33-.39v-.42l1.33.39zm0 1.66-1.33-.35v-.42l1.33.35zm0 1.66-1.33-.32v-.42l1.33.32zm0 1.66-1.33-.28v-.43l1.33.28zm0 1.66-1.33-.25v-.43l1.33.25zm0 1.66-1.33-.21v-.43l1.33.21zm0 1.66-1.33-.18v-.43l1.33.18zm0 1.66-1.33-.14v-.43l1.33.14zm0 1.66-1.33-.11v-.43l1.33.11zm0 1.66-1.33-.07v-.43l1.33.07zm0 1.66-1.33-.04v-.43l1.33.04zm0 1.66h-1.33v-.43h1.33zm17.81 51.45h-1l-2.54-43.05h1.31l2.22 43.05zm-9.98-40.16.06.6.03.34v.07s-7.93 0-7.93 0v-.11s.04-.29.04-.29l.05-.6h7.75zm-7.74-.17.02-.25.04-.43v-.06h7.59l.03.33.04.42h-7.72zm9.07 48.01h-10.42l.04-.48.07-.82h10.18l.07.82.04.48zm.71 7.82h-11.85l.04-.4.08-.9h11.61l.08.9zm1.66 18.25h-15.18l.02-.21.1-1.09h14.94l.1 1.09zm.24 2.61h-15.65l.02-.18.1-1.12h15.41l.1 1.12zm.24 2.61h-16.13v-.15s.01 0 .01 0l.1-1.15h15.89l.1 1.15v.15zm.48 5.22h-17.08v-.1s0 0 0 0l.11-1.2h16.84l.11 1.2v.1zm.24 2.61h-17.55v-.07s0 0 0 0l.11-1.23h17.32l.11 1.23v.07zm.1 1.14h-17.76l.09-.97h17.58s.09.97.09.97zm.13 1.47h-18.03v-.05s0 0 0 0l.11-1.25h17.79l.11 1.25v.05zm.24 2.61h-18.51v-.02s0 0 0 0l.12-1.28h18.27l.12 1.28zm.02.17.05.55.04.42h-18.71l.09-.97h18.54zm-18.39-1.63.09-.97h18.06l.09.97zm.48-5.22.09-.97h17.11l.09.97zm.24-2.61.02-.17.07-.8h16.63l.09.98h-16.81zm.1-1.14v-.13s.01 0 .01 0l.11-1.17h16.37l.11 1.2v.1s-16.59 0-16.59 0zm.13-1.47.09-.98h16.16l.04.39.05.58h-16.34zm.24-2.61s0 0 0 0l.09-.97h15.68l.09.97s-15.86 0-15.86 0zm.24-2.61v-.03l.09-.94h15.21l.04.38.05.59h-15.38zm.24-2.61v-.06l.08-.92h14.73l.08.92v.06s-14.9 0-14.9 0zm.1-1.14.02-.24.1-1.06h14.46l.12 1.3s-14.7 0-14.7 0zm.13-1.47v-.08l.08-.89h14.26v.07s.08.82.08.82v.08s-14.43 0-14.43 0zm.1-1.14.12-1.3h13.99l.12 1.3zm.13-1.47.09-.97h13.78l.09.97zm.1-1.14.02-.23v-.06s.1-1.01.1-1.01h13.51l.12 1.3zm.13-1.47.06-.68.03-.3h13.3l.09.98zm.1-1.14.03-.32.09-.98h13.04l.09.98.03.32h-13.27zm.13-1.47.09-.98h12.83l.09.98zm.1-1.14.12-1.3h12.56l.12 1.3zm.13-1.47.09-.97h12.35l.09.97zm.1-1.14.03-.37.08-.93h12.09l.12 1.3zm.13-1.47.03-.34.06-.64h11.88v.15s.09.83.09.83zm.24-2.61.09-.97h11.4l.09.97zm.1-1.14.12-1.3h11.13l.12 1.3zm.13-1.47.07-.82v-.16h10.94l.09.97h-11.1zm.1-1.14.04-.45.08-.85h10.66l.08.85v.03s.04.42.04.42zm.13-1.47.03-.3.06-.67h10.45l.06.67.03.3zm.24-2.61.09-.97h9.98l.09.97h-10.15zm.1-1.14.04-.42v-.09s.08-.79.08-.79h9.71l.12 1.3zm9.04-43.14.09 1.01h-8.32l.09-1.01h8.13zm-8.12-.17.07-.75h7.97l.07.75h-8.1zm8.4 3.27h-8.7l.03-.36.06-.65h8.51l.06.65.03.36zm.19 2.09h-9.08l.03-.34.06-.67h8.9l.06.67zm.19 2.09h-9.46l.09-1.01h9.28l.06.69zm.38 4.18h-10.22l.09-1.01h10.04l.07.73.03.27zm.19 2.09h-10.6l.02-.25.07-.76h10.42l.07.76zm.38 4.18h-11.37l.09-1.01h11.18l.07.8.02.21zm.19 2.09h-11.75l.02-.19.07-.82h11.56l.07.82.02.19zm.38 4.18h-12.51v-.15s.01 0 .01 0l.08-.86h12.33l.08.86v.15zm.57 6.27h-13.65v-.08s0 0 0 0l.08-.93h13.47l.08.93v.08zm.19 2.09h-14.03v-.06s0 0 0 0l.09-.95h13.85l.09.95zm.19 2.09h-14.42v-.04s0 0 0 0l.09-.97h14.23l.09.97v.04zm-2.48 6.06v.02s-9.47 0-9.47 0l.05-.53.11-1.22h9.15l.11 1.22zm.02.19.09.98h-9.68l.07-.73.02-.24h9.5zm-9.31-2.08.04-.39h9.05l.04.39h-9.12zm9.07-.55h-12.05l.04-.44h15l.04.44zm-11.99-.6.07-.75h14.83l.02.23.05.52h-14.96zm.08-.92.09-1.01h14.61l.09 1.01h-14.8zm.11-1.18.07-.75h14.45l.05.49.02.26h-14.58zm.19-2.09.07-.75h14.07l.07.75h-14.2zm.19-2.09.04-.47.03-.28h13.69s.07.75.07.75h-13.82zm.19-2.09.07-.75h13.3l.07.75zm.08-.92v-.1s0 0 0 0l.08-.91h13.09l.08.91v.1s-13.26 0-13.26 0zm.11-1.18.07-.75h12.92l.07.75zm.08-.92v-.09s.01-.03.01-.03l.08-.88h12.71l.09 1.01h-12.89zm.11-1.17.05-.6v-.15h12.55l.02.23.05.51h-12.68zm.19-2.09.07-.75h12.16l.07.75zm.08-.92.09-1.01h11.95l.09 1.01zm.11-1.17.05-.59v-.15h11.79l.03.27.04.48h-11.92zm.19-2.09v-.04l.04-.47.02-.24h11.4l.07.71v.04s-11.53 0-11.53 0zm.19-2.09.07-.75h11.02l.07.75h-11.15zm.08-.91.02-.23.07-.78h10.8l.09 1.01h-10.99zm.11-1.18.06-.71v-.04h10.64l.06.67v.08s-10.76 0-10.76 0zm.19-2.09v-.1l.05-.5v-.15h10.27l.06.65v.1s-10.38 0-10.38 0zm.19-2.09.07-.72v-.02h9.87l.07.75h-10.01zm.08-.92.03-.3.06-.71h9.66l.06.71.02.23v.07s-9.84 0-9.84 0zm.11-1.18.07-.75h9.49l.06.61v.14s-9.61 0-9.61 0zm.19-2.09.03-.31.04-.43h9.11l.02.25.05.5h-9.25zm.19-2.09.03-.37.03-.38h8.73l.05.56.02.19h-8.87zm.19-2.09.07-.75h8.35l.07.75h-8.48zm.11-3v.08s-.02.08-.02.08l-.03.29v.06h-5.62l.05-.76h5.64l-.02.24zm-3.58.68h3.51l-.02.23v.08s-.02.08-.02.08l-.06.63h-5.58l.06-1.02h2.1zm0 1.19h3.41l-.02.22v.08s-.02.08-.02.08l-.03.37h-5.55l.05-.76h2.17zm0 .92h3.32l-.02.21v.08s-.02.08-.02.08l-.06.65h-5.52l.06-1.02h2.23zm0 1.19h3.21l-.02.2v.08s-.02.08-.02.08l-.04.4h-5.49l.05-.76h2.3zm0 .93h3.13l-.02.19v.08s-.02.08-.02.08l-.06.67h-5.46l.06-1.02h2.36zm0 1.19h3.02l-.02.17v.08s-.02.08-.02.08l-.04.42h-5.43l.04-.71v-.02s0-.03 0-.03h2.43zm0 .92h2.94l-.02.16v.08s-.02.08-.02.08l-.06.69h-5.4l.06-1.02h2.49zm0 1.19h2.83v.15s-.02.08-.02.08v.08s-.05.44-.05.44h-5.37l.05-.76h2.56zm0 .92h2.74v.14s-.02.08-.02.08v.08s-.07.71-.07.71h-5.34l.06-1.02h2.62zm0 1.19h2.64v.13s-.02.08-.02.08v.08s-.05.46-.05.46h-5.31l.05-.76h2.69zm0 .92h2.55v.12s-.02.08-.02.08v.08s-.07.73-.07.73h-5.27l.06-1.02h2.75zm0 1.19h2.44v.11s-.02.08-.02.08v.08s-.03.29-.03.29l-.02.19h-5.25l.03-.56v-.03s0-.01 0-.01v-.15h2.84zm0 .92h2.36v.1s-.02.08-.02.08v.08s-.08.76-.08.76h-5.21l.06-1.02h2.88zm0 1.19h2.25v.09s-.02.08-.02.08v.08s-.01.03-.01.03l-.04.47h-5.19l.05-.76h2.96zm0 .92h2.17v.08s-.01.08-.01.08v.08s-.08.78-.08.78h-5.15s.06-1.02.06-1.02zm0 1.19h2.06v.07s-.01.08-.01.08v.08s-.02.13-.02.13l-.04.39h-5.12l.04-.65s0-.1 0-.1zm0 .92h1.97v.06s-.01.08-.01.08v.08s-.08.8-.08.8h-5.09l.06-1.02zm0 1.19h1.86v.04s-.01.08-.01.08v.08s-.03.27-.03.27l-.03.28h-5.06l.05-.73v-.02s0 0 0 0zm0 .92h1.78v.04s-.01.08-.01.08v.08s-.08.82-.08.82h-5.03l.06-1.02zm0 1.19h1.67v.02s0 .08 0 .08v.04s0 .04 0 .04l-.05.57h-5l.05-.76h3.35zm0 .92h1.59s0 .1 0 .1v.08s-.08.84-.08.84h-4.97l.06-1.02h3.41zm0 1.19h1.48s0 .08 0 .08v.08s-.04.4-.04.4l-.02.19h-4.94l.03-.52v-.06s.01-.17.01-.17zm0 .92h1.4v.08s-.01.08-.01.08l-.08.86h-4.9l.06-1.02h3.54zm0 1.19h1.29v.06s-.01.08-.01.08v.06s-.06.55-.06.55h-4.88l.03-.49v-.08s.02-.18.02-.18zm0 .92h1.2v.05s-.01.08-.01.08l-.08.88h-4.84l.06-1.02h3.67zm0 1.19h1.09v.04s-.01.08-.01.08l-.02.27-.03.36h-4.82l.05-.76h3.74zm0 .92h1.01v.03s-.01.08-.01.08l-.08.91h-4.78l.06-1.02zm0 1.19h.9v.02s0 .08 0 .08l-.02.17-.04.49h-4.76l.05-.76zm0 .92h.82s0 .09 0 .09l-.08.93h-4.72l.06-1.02h3.93zm0 1.19h.71v.08s-.07.68-.07.68h-4.69l.04-.71v-.04h4.01zm0 .92h.63v.07s-.09.95-.09.95h-4.66l.06-1.02zm0 1.19h.52v.06s-.07.7-.07.7h-4.63l.05-.76h4.14zm0 .92h.43v.05s-.09.97-.09.97h-4.6l.06-1.02h4.19zm0 1.19h.32v.04s-.07.72-.07.72h-4.57l.05-.76zm0 .92h.24v.03s-.07.78-.07.78l-.02.21h-4.54l.06-1.02zm0 1.19h.13l-.05.53-.02.22h-4.51l.04-.72v-.04h4.4zm.16 1.53h2.86l-.04.39v.08s-.02.08-.02.08l-.11 1.22h-7.16l.11-1.77h4.35zm12.41 1.77-.11-1.22v-.08s-.02-.08-.02-.08l-.04-.39h7.21l.11 1.77h-7.16zm2.78-2.77-.05-.53h4.53v.19s.03.3.03.3l.02.27h-4.51l-.02-.22zm.08-.7h-.15l-.02-.21-.07-.78v-.03s.07 0 .07 0h4.49l.06 1.02h-4.39zm0-1.19h-.26v-.13s-.07-.6-.07-.6v-.04s0 0 0 0h4.59l.05.76h-4.32zm0-.92h-.34l-.09-.97v-.05s.26 0 .26 0h4.36l.06 1.02h-4.26zm4.18-1.19h-4.63l-.06-.7v-.06s0 0 0 0h4.65l.05.76zm-4.18-.92h-.53l-.09-.95v-.07s.45 0 .45 0h4.23l.06 1.02h-4.13zm0-1.19h-.64l-.06-.68v-.06s0-.02 0-.02h4.72l.05.76h-4.05zm0-.92h-.72l-.08-.93v-.08s0-.01 0-.01h4.75l.06 1.02h-4zm0-1.19h-.83l-.05-.53v-.13s-.02-.08-.02-.08v-.02s.73 0 .73 0h4.04v.05s0 .05 0 .05l.04.66h-3.92zm0-.92h-.92l-.08-.91v-.08s-.01-.03-.01-.03h4.81l.06 1.02zm3.79-1.19h-4.82l-.05-.51v-.12s-.02-.08-.02-.08v-.04s.92 0 .92 0h3.91l.05.76zm-3.79-.92h-1.11l-.08-.88v-.08s-.01-.05-.01-.05h4.87l.06 1.02h-3.73zm0-1.19h-1.22l-.02-.26-.03-.35v-.08s-.01-.06-.01-.06h4.9v.08s.01.14.01.14.03.53.03.53zm0-.92h-1.3l-.08-.86v-.08s-.01-.08-.01-.08h4.93l.06 1.02zm0-1.19h-1.41v-.14s-.05-.45-.05-.45v-.08s-.02-.08-.02-.08 1.31 0 1.31 0h3.65l.05.76h-3.53zm0-.92h-1.5l-.08-.84v-.08s-.02-.08-.02-.08 1.42-.01 1.42-.01h3.57l.06 1.02h-3.47zm0-1.19h-1.6l-.05-.57v-.08s-.02-.08-.02-.08v-.02s0 0 0 0h5.02l.05.76h-3.4zm0-.92h-1.69l-.07-.82v-.08s-.02-.08-.02-.08v-.04s1.61 0 1.61 0h3.44l.06 1.02h-3.34zm0-1.19h-1.8l-.05-.55v-.08s-.02-.08-.02-.08v-.04s0 0 0 0h5.08l.02.26v.05s.03.45.03.45h-3.27zm0-.92h-1.88l-.07-.8v-.08s-.02-.08-.02-.08v-.06s1.8 0 1.8 0h3.31l.06 1.02h-3.21zm0-1.19h-1.99l-.03-.34-.02-.18v-.08s-.02-.08-.02-.08v-.07s1.89 0 1.89 0h3.25v.09s.05.66.05.66h-3.14zm0-.92h-2.07l-.07-.78v-.08s-.02-.08-.02-.08v-.08s1.99 0 1.99 0h3.18l.06 1.02h-3.08zm0-1.19h-2.18l-.05-.5v-.08s-.02-.08-.02-.08v-.09s2.08 0 2.08 0h3.12l.05.76h-3zm0-.92h-2.27l-.07-.76v-.08s-.02-.08-.02-.08v-.1s2.18 0 2.18 0h3.05l.06 1.02h-2.95zm0-1.19h-2.37l-.04-.48v-.08s-.02-.08-.02-.08v-.11s0 0 0 0h5.27l.05.76h-2.87zm0-.92h-2.46l-.07-.73v-.08s-.02-.08-.02-.08v-.12s2.37 0 2.37 0h2.92l.06 1.02h-2.82zm0-1.19h-2.57l-.04-.46v-.08s-.02-.08-.02-.08v-.13s2.46 0 2.46 0h2.86l.05.76h-2.74zm0-.92h-2.65l-.06-.71v-.08s-.02-.08-.02-.08v-.14s2.56 0 2.56 0h2.79l.06 1.02h-2.68zm0-1.19h-2.76l-.04-.44v-.08s-.02-.08-.02-.08v-.15s-.01 0-.01 0h5.39l.05.76h-2.61zm0-.92h-2.84l-.06-.69v-.08s-.02-.08-.02-.08l-.02-.16h5.43l.06 1.02h-2.55zm0-1.19h-2.95l-.04-.42v-.08s-.02-.08-.02-.08l-.02-.17h5.45v.08s.05.68.05.68h-2.48zm0-.92h-3.04l-.06-.67v-.08s-.02-.08-.02-.08l-.02-.19h5.49l.06 1.02h-2.42zm0-1.19h-3.14l-.04-.4v-.08s-.02-.08-.02-.08l-.02-.2h5.52l.05.76zm0-.93h-3.23l-.06-.65v-.08s-.02-.08-.02-.08l-.02-.21h5.55l.06 1.02h-2.29zm0-1.19h-3.34l-.03-.37v-.08s-.02-.08-.02-.08l-.02-.22h5.58v.05s.05.71.05.71h-2.22zm0-.92h-3.42l-.06-.63v-.08s-.02-.08-.02-.08l-.02-.23h5.61l.06 1.02h-2.16zm0-1.19h-3.53v-.07s-.03-.28-.03-.28v-.08s-.02-.08-.02-.08l-.02-.24h5.64l.05.76h-2.09zm0-.92h-3.61l-.05-.6v-.08s-.02-.08-.02-.08l-.02-.25h5.67l.06 1.02h-2.03zm0-1.19h-3.72l-.03-.33v-.08s-.02-.08-.02-.08l-.02-.26h5.7l.05.76h-1.96zm-11.66-.5v.08s-.02.08-.02.08l-.03.33h-5.68l.05-.76h5.7l-.02.26zm-3.77.66h3.71l-.02.25v.08s-.02.08-.02.08l-.05.6h-5.64l.06-1.02h1.97zm-1.97-2.64h-.47v-5.76h.47zm0 .17-.09 1.38-.07 1.09-.06 1.02-.07 1.09-.19 3.13-.07 1.09-.59 9.47-.07 1.09-.09 1.46-.04.65-.05.85-.02.35-.02.32-.04.6-.06 1.02-.07 1.09-.06.92-.03.45-.02.27-.03.48-.19 3.13-.07 1.09-.06 1.02v.21s-.07.88-.07.88l-.19 3.13-.07 1.09-.13 2.1s-.07 1.15-.07 1.15l-.06.98-.03.44h-.33l1.27-21.52 1.27-21.52zm-2.48 42.61h4.5s-.04.44-.04.44h-4.49zm.15 2.55h7.15l-.03.37v.08s-.02.08-.02.08l-.04.45h-7.12l.06-.99zm2.42 1.15h4.63l-.03.36v.08s-.02.08-.02.08l-.07.79h-7.08l.08-1.32h2.49zm0 1.48h4.49l-.02.17-.02.17v.08s-.02.08-.02.08l-.04.48h-7.05v-.02s0-.01 0-.01v-.21s.06-.74.06-.74h2.58zm0 1.15h4.39l-.03.33v.08s-.02.08-.02.08l-.07.82h-7l.08-1.32h2.66zm0 1.48h4.25l-.03.31v.08s-.02.08-.02.08l-.05.51h-6.97l.06-.99h2.75zm0 1.15h4.15l-.03.3v.08s-.02.08-.02.08l-.08.85h-6.93l.08-1.32h2.82zm0 1.48h4.01l-.02.18v.11s-.02.08-.02.08v.08s-.06.53-.06.53h-6.89v-.21s.02-.14.02-.14l.04-.64h2.91zm0 1.15h3.91l-.02.27v.08s-.02.08-.02.08l-.08.87h-6.85l.08-1.32h2.98zm0 1.48h3.77l-.02.26v.08s-.02.08-.02.08l-.02.27-.03.29h-6.82l.06-.99h3.07zm0 1.15h3.67l-.02.25v.08s-.02.08-.02.08l-.08.9h-6.77l.08-1.32h3.15zm0 1.48h3.53l-.02.23v.08s-.02.08-.02.08l-.05.59h-6.74l.06-.99h3.24zm0 1.15h3.42l-.02.22v.08s-.02.08-.02.08l-.08.93h-6.7l.08-1.32h3.31zm0 1.48h3.29l-.02.2v.08s-.02.08-.02.08v.11s-.06.5-.06.5h-6.66v-.07s.06-.92.06-.92h3.4zm0 1.15h3.18l-.02.19v.08s-.02.08-.02.08l-.09.96h-6.62l.08-1.31h3.47zm0 1.48h3.05l-.02.18v.08s-.02.08-.02.08l-.06.64h-6.59l.03-.44v-.2s.03-.35.03-.35h3.57zm0 1.15h2.94l-.02.17v.08s-.02.08-.02.08l-.09.98h-6.54l.08-1.32h3.64zm0 1.48h2.81v.15s-.02.08-.02.08v.02s0 .06 0 .06l-.06.67h-6.51l.06-.99h3.73zm0 1.15h2.7v.14s-.02.08-.02.08v.08s-.1 1.01-.1 1.01h-6.47l.08-1.32h3.8zm0 1.48h2.57v.12s-.02.08-.02.08v.08s-.07.7-.07.7h-6.43l.06-.99h3.89zm0 1.15h2.46v.11s-.02.08-.02.08v.08s-.1 1.04-.1 1.04h-6.39l.08-1.32h3.96zm0 1.48h2.33v.1s-.02.08-.02.08v.08s-.05.48-.05.48l-.02.24h-6.36l.06-.99h4.06zm0 1.15h2.22v.08s-.02.08-.02.08v.08s-.1 1.06-.1 1.06h-6.31l.08-1.32h4.13zm0 1.48h2.09v.07s-.01.08-.01.08v.08s-.06.56-.06.56l-.02.19h-6.28l.02-.26.04-.72zm0 1.15h1.98v.06s-.01.08-.01.08v.08s-.11 1.09-.11 1.09h-6.24l.08-1.32h4.29zm0 1.48h1.85v.04s0 .04 0 .04v.04s-.01.08-.01.08l-.07.78h-6.2l.03-.45.03-.41v-.13h4.39zm0 1.15h1.74v.03s-.01.08-.01.08v.08s-.11 1.12-.11 1.12h-6.16l.08-1.32h4.45zm0 1.48h1.61v.02s0 .08 0 .08v.08s-.08.8-.08.8h-6.13l.04-.59.02-.32v-.08h4.55zm0 1.15h1.5s0 .09 0 .09v.08s-.11 1.15-.11 1.15h-6.08l.08-1.32h4.62zm0 1.48h1.37v.07s-.01.08-.01.08l-.02.23-.05.6h-6.05l.06-.99h4.71zm0 1.15h1.26v.06s-.01.08-.01.08l-.11 1.17h-6.01l.08-1.32h4.78zm0 1.48h1.13v.04s-.01.08-.01.08l-.07.72v.14h-5.99l.06-.99h4.87zm0 1.15h1.02v.03s-.01.08-.01.08l-.11 1.2h-5.93l.08-1.32h4.95zm0 1.48h.89v.02s0 .08 0 .08l-.08.89h-5.9l.02-.27.04-.72h5.04zm0 1.15h.78s0 .09 0 .09l-.11 1.23h-5.85l.08-1.31h5.11zm0 1.48h.65v.07s-.07.66-.07.66l-.02.25h-5.82l.02-.29.03-.48v-.22h5.21zm0 1.15h.54v.06s-.12 1.25-.12 1.25h-5.78l.08-1.32h5.27zm0 1.48h.41v.05s-.09.94-.09.94h-5.74l.03-.45.03-.5v-.04h5.37zm0 1.15h.3v.03s-.12 1.28-.12 1.28h-5.7l.08-1.31zm.23 2.64h18.74l.05.59h-18.85l.05-.59zm18.79-1.33-.12-1.28v-.03s.13 0 .13 0h5.6l.08 1.31h-5.7zm5.61-1.48h-5.74l-.09-.94v-.05s.24 0 .24 0h5.53v.13s.02.16.02.16zm-5.43-1.15h-.42l-.11-1.25v-.06s.37 0 .37 0h5.44l.08 1.32h-5.35zm0-1.48h-.56v-.12s-.08-.79-.08-.79v-.07s.47 0 .47 0h5.37l.03.48v.13s.03.38.03.38h-5.26zm0-1.15h-.66l-.11-1.23v-.08s0 0 0 0h5.89l.08 1.31h-5.19zm0-1.48h-.8l-.08-.89v-.02s0-.06 0-.06v-.02s.72 0 .72 0h5.2l.06.99zm0-1.15h-.9l-.11-1.2v-.08s-.01-.03-.01-.03h5.97l.08 1.32h-5.03zm0-1.48h-1.04l-.02-.18-.06-.68v-.08s-.01-.04-.01-.04h6l.06.99h-4.94zm0-1.15h-1.14l-.11-1.17v-.08s-.01-.06-.01-.06h6.04l.08 1.32h-4.86zm0-1.48h-1.28l-.06-.66-.02-.17v-.08s-.01-.07-.01-.07h6.08l.06.99h-4.77zm0-1.15h-1.38l-.1-1.15v-.08s-.02-.08-.02-.08 1.34 0 1.34 0h4.78l.06 1.01.02.3zm0-1.48h-1.52l-.07-.8v-.08s-.02-.08-.02-.08v-.02s0 0 0 0h6.15v.14s.06.85.06.85h-4.61zm0-1.15h-1.62l-.1-1.12v-.08s-.02-.08-.02-.08v-.03s1.57 0 1.57 0h4.62l.08 1.32h-4.54zm0-1.48h-1.76l-.06-.67v-.11s-.02-.08-.02-.08v-.08s-.01-.04-.01-.04h6.23l.03.55.03.44h-4.44zm0-1.15h-1.86l-.1-1.09v-.08s-.02-.08-.02-.08v-.06s1.81 0 1.81 0h4.46l.08 1.32h-4.37zm0-1.48h-2l-.02-.19-.05-.57v-.08s-.02-.08-.02-.08v-.07s1.92 0 1.92 0h4.39l.06.99zm0-1.15h-2.1l-.1-1.06v-.08s-.02-.08-.02-.08v-.08s2.05 0 2.05 0h4.29l.08 1.32h-4.21zm0-1.48h-2.24l-.02-.17-.05-.55v-.08s-.02-.08-.02-.08v-.1s2.15 0 2.15 0h4.22l.06.99h-4.12zm0-1.15h-2.34l-.09-1.04v-.08s-.02-.08-.02-.08v-.11s2.29 0 2.29 0h4.13l.08 1.32h-4.05zm0-1.48h-2.48l-.06-.7v-.08s-.02-.08-.02-.08v-.12s2.39 0 2.39 0h4.06l.06.99h-3.95zm0-1.15h-2.58l-.09-1.01v-.08s-.02-.08-.02-.08v-.14s2.53 0 2.53 0h3.97l.08 1.32h-3.88zm0-1.48h-2.72l-.05-.52v-.15s-.02-.08-.02-.08v-.08s-.02-.15-.02-.15h6.54l.06.99h-3.79zm0-1.15h-2.82l-.09-.98v-.08s-.02-.08-.02-.08l-.02-.17h6.58l.08 1.32h-3.72zm0-1.48h-2.96l-.06-.64v-.08s-.02-.08-.02-.08l-.02-.18h6.61l.04.69.02.3h-3.63zm0-1.15h-3.06l-.09-.96v-.08s-.02-.08-.02-.08l-.02-.19h6.66l.08 1.31zm0-1.48h-3.2l-.02-.23-.04-.38v-.08s-.02-.08-.02-.08l-.02-.2h6.69l.06.99h-3.46zm0-1.15h-3.3l-.08-.93v-.08s-.02-.08-.02-.08l-.02-.22h6.73l.08 1.32h-3.39zm0-1.48h-3.44l-.05-.59v-.08s-.02-.08-.02-.08l-.02-.23h6.77l.06.99h-3.3zm0-1.15h-3.55l-.08-.9v-.08s-.02-.08-.02-.08l-.02-.25h6.81l.08 1.32h-3.23zm0-1.48h-3.68v-.09s-.05-.47-.05-.47v-.08s-.02-.08-.02-.08l-.02-.26h6.84l.03.45.03.54h-3.14zm0-1.15h-3.79l-.08-.87v-.08s-.02-.08-.02-.08l-.02-.27h6.89l.08 1.32h-3.06zm0-1.48h-3.92l-.05-.53v-.08s-.02-.08-.02-.08v-.09s-.03-.2-.03-.2h6.92l.06.99h-2.97zm0-1.15h-4.03l-.08-.85v-.08s-.02-.08-.02-.08l-.03-.3h6.96l.08 1.32h-2.9zm0-1.48h-4.16l-.05-.51v-.08s-.02-.08-.02-.08l-.03-.31h7l.06.99h-2.81zm0-1.15h-4.27l-.07-.82v-.08s-.02-.08-.02-.08l-.03-.33h7.04l.08 1.32h-2.74zm0-1.48h-4.4l-.04-.48v-.08s0-.01 0-.01v-.07s-.04-.34-.04-.34h7.07l.06.99h-2.65zm0-1.15h-4.51l-.07-.79v-.08s-.02-.08-.02-.08l-.03-.36h7.12l.08 1.32h-2.57zm0-1.48h-4.64l-.04-.45v-.08s-.02-.08-.02-.08l-.03-.37h7.15l.06.99h-2.48zm2.29-3.09h-4.19l-.04-.44s.05 0 .05 0h4.46l.03.44zm.3-2.71-.12-1.96-.06-.94v-.15s-.07-1.02-.07-1.02l-.03-.46-.1-1.66-.06-.93-.07-1.18-.07-1.09-.09-1.53-.04-.59-.19-3.13-.07-1.09-.06-1.02-.04-.68-.09-1.43-.05-.82-.08-1.29-.07-1.09-.19-3.13v-.1s-.17-2.71-.17-2.71l-.22-3.53-.05-.74-.22-3.48-.07-1.09-.06-1.02-.07-1.09-.09-1.38h.47l2.54 43.05h-.33l-.03-.44-.07-1.09-.06-1.02v-.16zm-2.51-40.5v-5.76h.47v5.76zm1.95 0h-1.31v-5.76h1.31zm-5.69-48.08h1.97v.96h-1.97zm0 1.76h1.97v.96h-1.97zm0 1.76h1.97v.96h-1.97zm0 1.76h1.97v.96h-1.97zm0 1.76h1.97v.96h-1.97zm0 1.76h1.97v.96h-1.97zm0 1.76h1.97v.96h-1.97zm0 1.76h1.97v.96h-1.97zm0 1.76h1.97v.96h-1.97zm0 1.76h1.97v.96h-1.97zm0 1.76h1.97v.96h-1.97zm0 1.75h1.97v.96h-1.97zm0 1.76h1.97v.96h-1.97zm0 1.76h1.97v.96h-1.97zm0 1.76h1.97v.96h-1.97zm0 1.76h1.97v.96h-1.97zm0 1.76h1.97v.96h-1.97zm0 1.76h1.97v.96h-1.97zm0 1.76h1.97v.96h-1.97zm0 1.76h1.97v.96h-1.97zm0 1.76h1.97v.96h-1.97zm0 1.76h1.97v.96h-1.97zm0 1.76h1.97v.96h-1.97zm0 1.76h1.97v.96h-1.97zm0 1.12h2.13v-1.29h-2.13v-.47h2.13v-1.29h-2.13v-.46h2.13v-1.29h-2.13v-.47h2.13v-1.29h-2.13v-.46h2.13v-1.29h-2.13v-.47h2.13v-1.29h-2.13v-.46h2.13v-1.29h-2.13v-.47h2.13v-1.29h-2.13v-.46h2.13v-1.29h-2.13v-.47h2.13v-1.29h-2.13v-.47h2.13v-1.29h-2.13v-.46h2.13v-1.29h-2.13v-.47h2.13v-1.29h-2.13v-.46h2.13v-1.29h-2.13v-.47h2.13v-1.29h-2.13v-.46h2.13v-1.29h-2.13v-.47h2.13v-1.29h-2.13v-.47h2.13v-1.29h-2.13v-.46h2.13v-1.29h-2.13v-.47h2.13v-1.29h-2.13v-.46h2.13v-1.29h-2.13v-.47h2.13v-1.29h-2.13v-.46h2.13v-1.29h-2.13v-.47h2.13v-1.29h-2.13v-4.22h5.61v46.54h-5.61v-.66zm-2.03.83h5.61v5.76h-5.61zm0 5.92h5.61l.09 1.38h-5.7l-.09-.94v-.08s-.02-.08-.02-.08l-.03-.28h.13zm-7.66-51.35h7.49v3.14h-7.49zm0 3.31h7.49v.86h-7.49zm0 1.03h7.49v.46h-7.49zm0 .72v-.09h7.49v.86h-7.49zm0 .94h7.49v.46h-7.49zm0 .72v-.09h7.49v.86h-7.49zm0 .94h7.49v.46h-7.49zm0 .72v-.09h7.49v.86h-7.49v-.78zm0 .94h7.49v.46h-7.49zm0 .71v-.08h7.49v.86h-7.49zm0 .95h7.49v.46h-7.49zm0 .71v-.08h7.49v.86h-7.49zm0 .95h7.49v.46h-7.49zm0 .7v-.07h7.49v.86h-7.49zm0 .95h7.49v.46h-7.49zm0 .7v-.07h7.49v.86h-7.49zm0 .96h7.49v.46h-7.49zm0 .7v-.07h7.49v.86h-7.49v-.8zm0 .96h7.49v.46h-7.49zm0 .69v-.06h7.49v.86h-7.49zm0 .97h7.49v.46h-7.49zm0 .69v-.06h7.49v.86h-7.49zm0 .97h7.49v.46h-7.49zm0 .69v-.06h7.49v.86h-7.49v-.81zm0 .97h7.49v.46h-7.49zm0 .68v-.05h7.49v.86h-7.49zm0 .98h7.49v.46h-7.49zm0 .68v-.05h7.49v.86h-7.49zm0 .98h7.49v.46h-7.49zm0 .68v-.05h7.49v.86h-7.49v-.82zm0 .98h7.49v.46h-7.49zm0 .67v-.04h7.49v.86h-7.49zm0 .99h7.49v.46h-7.49zm0 .67v-.04h7.49v.86h-7.49zm0 .99h7.49v.46h-7.49zm0 1.49v-.86h7.49v.86s-7.49 0-7.49 0zm0 .17h7.49v.46h-7.49zm0 1.49v-.86h7.49v.86s-7.49 0-7.49 0zm0 .17h7.49v.46h-7.49zm0 1.49v-.86h7.49v.86s-7.49 0-7.49 0zm0 .17h7.49v.46h-7.49zm0 1.48v-.85h7.49v.85s-7.49 0-7.49 0zm0 .18h7.49v.46h-7.49zm0 1.48v-.85h7.49v.85s-7.49.01-7.49.01zm0 .18h7.49v.46h-7.49zm0 1.48v-.85h7.49v.85s-7.49.01-7.49.01zm0 .18h7.49v.46h-7.49zm0 1.48v-.85h7.49v.86h-7.49v-.02zm0 .18h7.49v.46h-7.49zm0 .65v-.02h7.49v.86h-7.49v-.85zm0 1.01h7.49v1.09h-7.49zm0 1.26h7.49v5.76h-7.49zm7.38 6.2h-7.27l.03-.28h7.22l.03.28zm-7.29.17h7.3l.09.94.04.43h-7.55zm-.13-.44-.03.28v.08s-.02.08-.02.08l-.09.94h-5.7l.09-1.38h5.74zm-.13-5.92v5.76h-5.61v-5.76zm-2.11-1h-1.97v-.96h1.97zm0-1.76h-1.97v-.96h1.97zm0-1.76h-1.97v-.96h1.97zm0-1.76h-1.97v-.96h1.97zm0-1.76h-1.97v-.96h1.97zm0-1.76h-1.97v-.96h1.97zm0-1.76h-1.97v-.96h1.97zm0-1.76h-1.97v-.96h1.97zm0-1.76h-1.97v-.96h1.97zm0-1.76h-1.97v-.96h1.97zm0-1.76h-1.97v-.96h1.97zm0-1.76h-1.97v-.96h1.97zm0-1.76h-1.97v-.96h1.97zm0-1.75h-1.97v-.96h1.97zm0-1.76h-1.97v-.96h1.97zm0-1.76h-1.97v-.96h1.97zm0-1.76h-1.97v-.96h1.97zm0-1.76h-1.97v-.96h1.97zm0-1.76h-1.97v-.96h1.97zm0-1.76h-1.97v-.96h1.97zm0-1.76h-1.97v-.96h1.97zm0-1.76h-1.97v-.96h1.97zm0-1.76h-1.97v-.96h1.97zm0-1.76h-1.97v-.96h1.97zm-5.61-5.34h5.61v4.22h-2.13v1.29h2.13v.47h-2.13v1.29h2.13v.46h-2.13v1.29h2.13v.47h-2.13v1.29h2.13v.46h-2.13v1.29h2.13v.47h-2.13v1.29h2.13v.46h-2.13v1.29h2.13v.47h-2.13v1.29h2.13v.47h-2.13v1.29h2.13v.46h-2.13v1.29h2.13v.47h-2.13v1.29h2.13v.46h-2.13v1.29h2.13v.47h-2.13v1.29h2.13v.46h-2.13v1.29h2.13v.47h-2.13v1.29h2.13v.47h-2.13v1.29h2.13v.46h-2.13v1.29h2.13v.47h-2.13v1.29h2.13v.46h-2.13v1.29h2.13v.47h-2.13v1.29h2.13v.46h-2.13v1.29h2.13v.47h-2.13v1.29h2.13v.46h-2.13v1.29h2.13v.47h-2.13v1.29h2.13v.66h-5.61v-46.49zm0 46.71h1.31v5.76h-1.31zm0 5.92h1.31l-1.27 21.52-1.27 21.52h-1l2.22-43.05zm-4.4 115.11h-1.29v-17.98h1.29zm0-18.15h-1.29l2.78-53.75h1.68l-1.58 26.87-1.58 26.87zm.62 1.56v16.6h-.46v-17.98h.46v1.39zm.12-3.47-.08 1.32-.04.59h-.46l1.58-26.87 1.58-26.87h.62l-.11 1.77-.08 1.32-.08 1.32-.08 1.32-.08 1.32v.23s-.08 1.09-.08 1.09l-.08 1.32-.08 1.32-.09 1.43-.07 1.2-.08 1.32-.08 1.32-.08 1.32-.08 1.32-.08 1.31-.05.75-.12 1.89-.08 1.32-.08 1.32-.08 1.32-.08 1.32-.08 1.32-.08 1.32-.08 1.32-.08 1.32-.07 1.07v.11s-.02.14-.02.14l-.11 1.72-.06.91-.08 1.32-.08 1.32-.03.56-.05.75-.08 1.32-.08 1.32-.08 1.32-.08 1.31-.08 1.25-.11 1.81-.06.9-.08 1.31zm5.68 20.06h-5.64v-1.08h5.64zm0-1.24h-5.64v-.2h5.64zm0-1.56v1.2h-5.64v-1.61h5.64zm0-.58h-5.64v-.2h5.64zm0-1.84v1.48h-5.64v-1.61h5.64zm0-.3h-5.64v-.2h5.64zm0-1.27v.9h-5.64v-1.61h5.64zm0-.87h-5.64v-.2h5.64zm0-.36h-5.64v-1.61h5.64zm0-1.78h-5.64v-.2h5.64zm0-1.03v.67h-5.64v-1.61h5.64v.95zm0-1.11h-5.64v-.2h5.64zm0-.36h-5.64v-1.61h5.64zm0-1.78h-5.64v-.2h5.64zm0-1.62v1.26h-5.64v-1.61h5.64zm0-.52h-5.64v-.2h5.64zm0-.36h-5.64v-1.39h5.64zm.06-2.14-.05.59h-5.64l.04-.59h5.66zm.07-.73-.04.48v.07h-5.67v-.06s.06-.92.06-.92h5.69s-.04.43-.04.43zm18.91 17.86v1.61h-18.87v-2.64h18.87zm0-2.14v.94h-18.87v-2.26h18.87zm0-2.14v.66h-18.87v-1.4h18.87zm0-4.28v3.38h-18.87v-3.88h18.87zm0-4.28v3.62h-18.87v-4.71h18.87zm0-2.14v.87h-18.87v-2.26h18.87zm.08-2.39-.03-.35-.05-.57s0 0 0 0h5.69l.06.99h-5.67zm.08.83-.05-.59s.06 0 .06 0h5.6l.04.59h-5.64zm5.65 18.15h-5.64v-1.08h5.64zm0-1.24h-5.64v-.2h5.64zm0-.36h-5.64v-1.61h5.64zm0-1.78h-5.64v-.2h5.64zm0-.36h-5.64v-1.61h5.64zm0-1.78h-5.64v-.2h5.64zm0-.36h-5.64v-1.61h5.64zm0-1.78h-5.64v-.2h5.64zm0-.36h-5.64v-1.61h5.64zm0-1.78h-5.64v-.2h5.64zm0-.36h-5.64v-1.61h5.64zm0-1.78h-5.64v-.2h5.64zm0-.36h-5.64v-1.61h5.64zm0-1.78h-5.64v-.2h5.64zm0-.36h-5.64v-1.61h5.64zm0-1.78h-5.64v-.2h5.64zm0-.36h-5.64v-1.39h5.64zm.16-1.56-.04-.59-.08-1.32-.08-1.31-.06-.9-.11-1.81-.08-1.25-.08-1.31-.08-1.32-.08-1.32-.08-1.32-.08-1.32-.08-1.32-.08-1.32-.05-.88-.17-2.74-.02-.33-.08-1.32-.08-1.32-.08-1.32-.08-1.32-.08-1.32-.08-1.32-.08-1.32-.08-1.21v-.11s-.25-3.95-.25-3.95l-.08-1.32-.08-1.32-.08-1.32-.25-3.95-.08-1.32-.08-1.32-.07-1.13-.03-.5-.06-1.01-.08-1.32-.08-1.32-.08-1.32-.11-1.77h.62l3.17 53.75h-.46zm.46 18.15h-.46v-17.98h.46zm.16-18.15-3.17-53.75h1.68l2.78 53.75zm1.29 18.15h-1.29v-17.98h1.29z"/><path d="m215.57 50.68h-1.35v1.29h1.35zm-.17 1.12h-1.02v-.96h1.02z"/><path d="m215.57 48.92h-1.35v1.29h1.35zm-.17 1.12h-1.02v-.96h1.02z"/><path d="m215.57 47.17h-1.35v1.29h1.35zm-.17 1.12h-1.02v-.96h1.02z"/><path d="m215.57 45.41h-1.35v1.29h1.35zm-.17 1.12h-1.02v-.96h1.02z"/><path d="m215.57 43.66h-1.35v1.29h1.35zm-.17 1.12h-1.02v-.96h1.02z"/><path d="m215.57 41.9h-1.35v1.29h1.35zm-.17 1.12h-1.02v-.96h1.02z"/><path d="m215.57 40.15h-1.35v1.29h1.35zm-.17 1.12h-1.02v-.96h1.02z"/><path d="m215.57 38.39h-1.35v1.29h1.35zm-.17 1.12h-1.02v-.96h1.02z"/><path d="m215.57 36.63h-1.35v1.29h1.35zm-.17 1.12h-1.02v-.96h1.02z"/><path d="m215.57 34.88h-1.35v1.29h1.35zm-.17 1.12h-1.02v-.96h1.02z"/><path d="m215.57 33.12h-1.35v1.29h1.35zm-.17 1.12h-1.02v-.96h1.02z"/><path d="m215.57 31.37h-1.35v1.29h1.35zm-.17 1.12h-1.02v-.96h1.02z"/><path d="m215.57 29.61h-1.35v1.29h1.35zm-.17 1.12h-1.02v-.96h1.02z"/><path d="m215.57 27.86h-1.35v1.29h1.35zm-.17 1.12h-1.02v-.96h1.02z"/><path d="m215.57 26.1h-1.35v1.29h1.35zm-.17 1.12h-1.02v-.96h1.02z"/><path d="m215.57 24.35h-1.35v1.29h1.35zm-.17 1.12h-1.02v-.96h1.02z"/><path d="m215.57 22.59h-1.35v1.29h1.35zm-.17 1.12h-1.02v-.96h1.02z"/><path d="m215.57 20.84h-1.35v1.29h1.35zm-.17 1.12h-1.02v-.96h1.02z"/><path d="m215.57 19.08h-1.35v1.29h1.35zm-.17 1.12h-1.02v-.96h1.02z"/><path d="m215.57 17.33h-1.35v1.29h1.35zm-.17 1.12h-1.02v-.96h1.02z"/><path d="m215.57 15.57h-1.35v1.29h1.35zm-.17 1.12h-1.02v-.96h1.02z"/><path d="m215.57 13.81h-1.35v1.29h1.35zm-.17 1.12h-1.02v-.96h1.02z"/><path d="m215.57 12.06h-1.35v1.29h1.35zm-.17 1.12h-1.02v-.96h1.02z"/><path d="m215.57 10.3h-1.35v1.29h1.35zm-.17 1.12h-1.02v-.96h1.02z"/><path d="m234.26 50.68h-1.35v1.29h1.35zm-.17 1.12h-1.02v-.96h1.02z"/><path d="m234.26 48.92h-1.35v1.29h1.35zm-.17 1.12h-1.02v-.96h1.02z"/><path d="m234.26 47.17h-1.35v1.29h1.35zm-.17 1.12h-1.02v-.96h1.02z"/><path d="m234.26 45.41h-1.35v1.29h1.35zm-.17 1.12h-1.02v-.96h1.02z"/><path d="m234.26 43.66h-1.35v1.29h1.35zm-.17 1.12h-1.02v-.96h1.02z"/><path d="m234.26 41.9h-1.35v1.29h1.35zm-.17 1.12h-1.02v-.96h1.02z"/><path d="m234.26 40.15h-1.35v1.29h1.35zm-.17 1.12h-1.02v-.96h1.02z"/><path d="m234.26 38.39h-1.35v1.29h1.35zm-.17 1.12h-1.02v-.96h1.02z"/><path d="m234.26 36.63h-1.35v1.29h1.35zm-.17 1.12h-1.02v-.96h1.02z"/><path d="m234.26 34.88h-1.35v1.29h1.35zm-.17 1.12h-1.02v-.96h1.02z"/><path d="m234.26 33.12h-1.35v1.29h1.35zm-.17 1.12h-1.02v-.96h1.02z"/><path d="m234.26 31.37h-1.35v1.29h1.35zm-.17 1.12h-1.02v-.96h1.02z"/><path d="m234.26 29.61h-1.35v1.29h1.35zm-.17 1.12h-1.02v-.96h1.02z"/><path d="m234.26 27.86h-1.35v1.29h1.35zm-.17 1.12h-1.02v-.96h1.02z"/><path d="m234.26 26.1h-1.35v1.29h1.35zm-.17 1.12h-1.02v-.96h1.02z"/><path d="m234.26 24.35h-1.35v1.29h1.35zm-.17 1.12h-1.02v-.96h1.02z"/><path d="m234.26 22.59h-1.35v1.29h1.35zm-.17 1.12h-1.02v-.96h1.02z"/><path d="m234.26 20.84h-1.35v1.29h1.35zm-.17 1.12h-1.02v-.96h1.02z"/><path d="m234.26 19.08h-1.35v1.29h1.35zm-.17 1.12h-1.02v-.96h1.02z"/><path d="m234.26 17.33h-1.35v1.29h1.35zm-.17 1.12h-1.02v-.96h1.02z"/><path d="m234.26 15.57h-1.35v1.29h1.35zm-.17 1.12h-1.02v-.96h1.02z"/><path d="m234.26 13.81h-1.35v1.29h1.35zm-.17 1.12h-1.02v-.96h1.02z"/><path d="m234.26 12.06h-1.35v1.29h1.35zm-.17 1.12h-1.02v-.96h1.02z"/><path d="m234.26 10.3h-1.35v1.29h1.35zm-.17 1.12h-1.02v-.96h1.02z"/><path d="m603.91 67.71c-12.13 0-24.15 5.1-32.98 13.98-10.88 10.95-16.63 27.21-16.63 47.01v29.3c0 .06.04.1.1.1s.1-.04.1-.1v-29.3c0-19.75 5.73-35.96 16.57-46.87 8.76-8.82 20.69-13.89 32.74-13.92v89.45c0 .06.04.1.1.1s.1-.04.1-.1v-89.55z"/><path d="m574.13 86.5h28.06v-1.7h-28.06zm.2-1.5h27.66v1.3h-27.66z"/><path d="m595.97 92.91h2.33v-1.83h-2.33zm.2-1.63h1.93v1.43h-1.93z"/><path d="m599.21 92.91h2.33v-1.83h-2.33zm.2-1.63h1.93v1.43h-1.93z"/><path d="m592.73 92.91h2.33v-1.83h-2.33zm.2-1.63h1.93v1.43h-1.93z"/><path d="m589.49 92.91h2.33v-1.83h-2.33zm.2-1.63h1.93v1.43h-1.93z"/><path d="m586.24 92.91h2.33v-1.83h-2.33zm.2-1.63h1.93v1.43h-1.93z"/><path d="m583 92.91h2.33v-1.83h-2.33zm.2-1.63h1.93v1.43h-1.93z"/><path d="m579.76 92.91h2.33v-1.83h-2.33zm.2-1.63h1.93v1.43h-1.93z"/><path d="m576.52 92.91h2.33v-1.83h-2.33zm.2-1.63h1.93v1.43h-1.93z"/><path d="m573.28 92.91h2.33v-1.83h-2.33zm.2-1.63h1.93v1.43h-1.93z"/><path d="m595.97 95.65h2.33v-1.83h-2.33zm.2-1.63h1.93v1.43h-1.93z"/><path d="m599.21 95.65h2.33v-1.83h-2.33zm.2-1.63h1.93v1.43h-1.93z"/><path d="m592.73 95.65h2.33v-1.83h-2.33zm.2-1.63h1.93v1.43h-1.93z"/><path d="m589.49 95.65h2.33v-1.83h-2.33zm.2-1.63h1.93v1.43h-1.93z"/><path d="m586.24 95.65h2.33v-1.83h-2.33zm.2-1.63h1.93v1.43h-1.93z"/><path d="m583 95.65h2.33v-1.83h-2.33zm.2-1.63h1.93v1.43h-1.93z"/><path d="m579.76 95.65h2.33v-1.83h-2.33zm.2-1.63h1.93v1.43h-1.93z"/><path d="m576.52 95.65h2.33v-1.83h-2.33zm.2-1.63h1.93v1.43h-1.93z"/><path d="m573.28 95.65h2.33v-1.83h-2.33zm.2-1.63h1.93v1.43h-1.93z"/><path d="m570.04 95.65h2.33v-1.83h-2.33zm.2-1.63h1.93v1.43h-1.93z"/><path d="m595.97 98.39h2.33v-1.83h-2.33zm.2-1.63h1.93v1.43h-1.93z"/><path d="m599.21 98.39h2.33v-1.83h-2.33zm.2-1.63h1.93v1.43h-1.93z"/><path d="m592.73 98.39h2.33v-1.83h-2.33zm.2-1.63h1.93v1.43h-1.93z"/><path d="m589.49 98.39h2.33v-1.83h-2.33zm.2-1.63h1.93v1.43h-1.93z"/><path d="m586.24 98.39h2.33v-1.83h-2.33zm.2-1.63h1.93v1.43h-1.93z"/><path d="m583 98.39h2.33v-1.83h-2.33zm.2-1.63h1.93v1.43h-1.93z"/><path d="m579.76 98.39h2.33v-1.83h-2.33zm.2-1.63h1.93v1.43h-1.93z"/><path d="m576.52 98.39h2.33v-1.83h-2.33zm.2-1.63h1.93v1.43h-1.93z"/><path d="m573.28 98.39h2.33v-1.83h-2.33zm.2-1.63h1.93v1.43h-1.93z"/><path d="m570.04 98.39h2.33v-1.83h-2.33zm.2-1.63h1.93v1.43h-1.93z"/><path d="m595.97 101.12h2.33v-1.83h-2.33zm.2-1.63h1.93v1.43h-1.93z"/><path d="m599.21 101.12h2.33v-1.83h-2.33zm.2-1.63h1.93v1.43h-1.93z"/><path d="m592.73 101.12h2.33v-1.83h-2.33zm.2-1.63h1.93v1.43h-1.93z"/><path d="m589.49 101.12h2.33v-1.83h-2.33zm.2-1.63h1.93v1.43h-1.93z"/><path d="m586.24 101.12h2.33v-1.83h-2.33zm.2-1.63h1.93v1.43h-1.93z"/><path d="m583 101.12h2.33v-1.83h-2.33zm.2-1.63h1.93v1.43h-1.93z"/><path d="m579.76 101.12h2.33v-1.83h-2.33zm.2-1.63h1.93v1.43h-1.93z"/><path d="m576.52 101.12h2.33v-1.83h-2.33zm.2-1.63h1.93v1.43h-1.93z"/><path d="m573.28 101.12h2.33v-1.83h-2.33zm.2-1.63h1.93v1.43h-1.93z"/><path d="m570.04 101.12h2.33v-1.83h-2.33zm.2-1.63h1.93v1.43h-1.93z"/><path d="m566.8 101.12h2.33v-1.83h-2.33zm.2-1.63h1.93v1.43h-1.93z"/><path d="m595.97 103.86h2.33v-1.83h-2.33zm.2-1.63h1.93v1.43h-1.93z"/><path d="m599.21 103.86h2.33v-1.83h-2.33zm.2-1.63h1.93v1.43h-1.93z"/><path d="m592.73 103.86h2.33v-1.83h-2.33zm.2-1.63h1.93v1.43h-1.93z"/><path d="m589.49 103.86h2.33v-1.83h-2.33zm.2-1.63h1.93v1.43h-1.93z"/><path d="m586.24 103.86h2.33v-1.83h-2.33zm.2-1.63h1.93v1.43h-1.93z"/><path d="m583 103.86h2.33v-1.83h-2.33zm.2-1.63h1.93v1.43h-1.93z"/><path d="m579.76 103.86h2.33v-1.83h-2.33zm.2-1.63h1.93v1.43h-1.93z"/><path d="m576.52 103.86h2.33v-1.83h-2.33zm.2-1.63h1.93v1.43h-1.93z"/><path d="m573.28 103.86h2.33v-1.83h-2.33zm.2-1.63h1.93v1.43h-1.93z"/><path d="m570.04 103.86h2.33v-1.83h-2.33zm.2-1.63h1.93v1.43h-1.93z"/><path d="m566.8 103.86h2.33v-1.83h-2.33zm.2-1.63h1.93v1.43h-1.93z"/><path d="m595.97 106.59h2.33v-1.83h-2.33zm.2-1.63h1.93v1.43h-1.93z"/><path d="m599.21 106.59h2.33v-1.83h-2.33zm.2-1.63h1.93v1.43h-1.93z"/><path d="m592.73 106.59h2.33v-1.83h-2.33zm.2-1.63h1.93v1.43h-1.93z"/><path d="m589.49 106.59h2.33v-1.83h-2.33zm.2-1.63h1.93v1.43h-1.93z"/><path d="m586.24 106.59h2.33v-1.83h-2.33zm.2-1.63h1.93v1.43h-1.93z"/><path d="m583 106.59h2.33v-1.83h-2.33zm.2-1.63h1.93v1.43h-1.93z"/><path d="m579.76 106.59h2.33v-1.83h-2.33zm.2-1.63h1.93v1.43h-1.93z"/><path d="m576.52 106.59h2.33v-1.83h-2.33zm.2-1.63h1.93v1.43h-1.93z"/><path d="m573.28 106.59h2.33v-1.83h-2.33zm.2-1.63h1.93v1.43h-1.93z"/><path d="m570.04 106.59h2.33v-1.83h-2.33zm.2-1.63h1.93v1.43h-1.93z"/><path d="m566.8 106.59h2.33v-1.83h-2.33zm.2-1.63h1.93v1.43h-1.93z"/><path d="m563.56 106.59h2.33v-1.83h-2.33zm.2-1.63h1.93v1.43h-1.93z"/><path d="m595.97 109.33h2.33v-1.83h-2.33zm.2-1.63h1.93v1.43h-1.93z"/><path d="m599.21 109.33h2.33v-1.83h-2.33zm.2-1.63h1.93v1.43h-1.93z"/><path d="m592.73 109.33h2.33v-1.83h-2.33zm.2-1.63h1.93v1.43h-1.93z"/><path d="m589.49 109.33h2.33v-1.83h-2.33zm.2-1.63h1.93v1.43h-1.93z"/><path d="m586.24 109.33h2.33v-1.83h-2.33zm.2-1.63h1.93v1.43h-1.93z"/><path d="m583 109.33h2.33v-1.83h-2.33zm.2-1.63h1.93v1.43h-1.93z"/><path d="m579.76 109.33h2.33v-1.83h-2.33zm.2-1.63h1.93v1.43h-1.93z"/><path d="m576.52 109.33h2.33v-1.83h-2.33zm.2-1.63h1.93v1.43h-1.93z"/><path d="m573.28 109.33h2.33v-1.83h-2.33zm.2-1.63h1.93v1.43h-1.93z"/><path d="m570.04 109.33h2.33v-1.83h-2.33zm.2-1.63h1.93v1.43h-1.93z"/><path d="m566.8 109.33h2.33v-1.83h-2.33zm.2-1.63h1.93v1.43h-1.93z"/><path d="m563.56 109.33h2.33v-1.83h-2.33zm.2-1.63h1.93v1.43h-1.93z"/><path d="m595.97 112.06h2.33v-1.83h-2.33zm.2-1.63h1.93v1.43h-1.93z"/><path d="m599.21 112.06h2.33v-1.83h-2.33zm.2-1.63h1.93v1.43h-1.93z"/><path d="m592.73 112.06h2.33v-1.83h-2.33zm.2-1.63h1.93v1.43h-1.93z"/><path d="m589.49 112.06h2.33v-1.83h-2.33zm.2-1.63h1.93v1.43h-1.93z"/><path d="m586.24 112.06h2.33v-1.83h-2.33zm.2-1.63h1.93v1.43h-1.93z"/><path d="m583 112.06h2.33v-1.83h-2.33zm.2-1.63h1.93v1.43h-1.93z"/><path d="m579.76 112.06h2.33v-1.83h-2.33zm.2-1.63h1.93v1.43h-1.93z"/><path d="m576.52 112.06h2.33v-1.83h-2.33zm.2-1.63h1.93v1.43h-1.93z"/><path d="m573.28 112.06h2.33v-1.83h-2.33zm.2-1.63h1.93v1.43h-1.93z"/><path d="m570.04 112.06h2.33v-1.83h-2.33zm.2-1.63h1.93v1.43h-1.93z"/><path d="m566.8 112.06h2.33v-1.83h-2.33zm.2-1.63h1.93v1.43h-1.93z"/><path d="m563.56 112.06h2.33v-1.83h-2.33zm.2-1.63h1.93v1.43h-1.93z"/><path d="m560.32 112.06h2.33v-1.83h-2.33zm.2-1.63h1.93v1.43h-1.93z"/><path d="m595.97 114.8h2.33v-1.83h-2.33zm.2-1.63h1.93v1.43h-1.93z"/><path d="m599.21 114.8h2.33v-1.83h-2.33zm.2-1.63h1.93v1.43h-1.93z"/><path d="m592.73 114.8h2.33v-1.83h-2.33zm.2-1.63h1.93v1.43h-1.93z"/><path d="m589.49 114.8h2.33v-1.83h-2.33zm.2-1.63h1.93v1.43h-1.93z"/><path d="m586.24 114.8h2.33v-1.83h-2.33zm.2-1.63h1.93v1.43h-1.93z"/><path d="m583 114.8h2.33v-1.83h-2.33zm.2-1.63h1.93v1.43h-1.93z"/><path d="m579.76 114.8h2.33v-1.83h-2.33zm.2-1.63h1.93v1.43h-1.93z"/><path d="m576.52 114.8h2.33v-1.83h-2.33zm.2-1.63h1.93v1.43h-1.93z"/><path d="m573.28 114.8h2.33v-1.83h-2.33zm.2-1.63h1.93v1.43h-1.93z"/><path d="m570.04 114.8h2.33v-1.83h-2.33zm.2-1.63h1.93v1.43h-1.93z"/><path d="m566.8 114.8h2.33v-1.83h-2.33zm.2-1.63h1.93v1.43h-1.93z"/><path d="m563.56 114.8h2.33v-1.83h-2.33zm.2-1.63h1.93v1.43h-1.93z"/><path d="m560.32 114.8h2.33v-1.83h-2.33zm.2-1.63h1.93v1.43h-1.93z"/><path d="m595.97 117.53h2.33v-1.83h-2.33zm.2-1.63h1.93v1.43h-1.93z"/><path d="m599.21 117.53h2.33v-1.83h-2.33zm.2-1.63h1.93v1.43h-1.93z"/><path d="m592.73 117.53h2.33v-1.83h-2.33zm.2-1.63h1.93v1.43h-1.93z"/><path d="m589.49 117.53h2.33v-1.83h-2.33zm.2-1.63h1.93v1.43h-1.93z"/><path d="m586.24 117.53h2.33v-1.83h-2.33zm.2-1.63h1.93v1.43h-1.93z"/><path d="m583 117.53h2.33v-1.83h-2.33zm.2-1.63h1.93v1.43h-1.93z"/><path d="m579.76 117.53h2.33v-1.83h-2.33zm.2-1.63h1.93v1.43h-1.93z"/><path d="m576.52 117.53h2.33v-1.83h-2.33zm.2-1.63h1.93v1.43h-1.93z"/><path d="m573.28 117.53h2.33v-1.83h-2.33zm.2-1.63h1.93v1.43h-1.93z"/><path d="m570.04 117.53h2.33v-1.83h-2.33zm.2-1.63h1.93v1.43h-1.93z"/><path d="m566.8 117.53h2.33v-1.83h-2.33zm.2-1.63h1.93v1.43h-1.93z"/><path d="m563.56 117.53h2.33v-1.83h-2.33zm.2-1.63h1.93v1.43h-1.93z"/><path d="m560.32 117.53h2.33v-1.83h-2.33zm.2-1.63h1.93v1.43h-1.93z"/><path d="m595.97 120.27h2.33v-1.83h-2.33zm.2-1.63h1.93v1.43h-1.93z"/><path d="m599.21 120.27h2.33v-1.83h-2.33zm.2-1.63h1.93v1.43h-1.93z"/><path d="m592.73 120.27h2.33v-1.83h-2.33zm.2-1.63h1.93v1.43h-1.93z"/><path d="m589.49 120.27h2.33v-1.83h-2.33zm.2-1.63h1.93v1.43h-1.93z"/><path d="m586.24 120.27h2.33v-1.83h-2.33zm.2-1.63h1.93v1.43h-1.93z"/><path d="m583 120.27h2.33v-1.83h-2.33zm.2-1.63h1.93v1.43h-1.93z"/><path d="m579.76 120.27h2.33v-1.83h-2.33zm.2-1.63h1.93v1.43h-1.93z"/><path d="m576.52 120.27h2.33v-1.83h-2.33zm.2-1.63h1.93v1.43h-1.93z"/><path d="m573.28 120.27h2.33v-1.83h-2.33zm.2-1.63h1.93v1.43h-1.93z"/><path d="m570.04 120.27h2.33v-1.83h-2.33zm.2-1.63h1.93v1.43h-1.93z"/><path d="m566.8 120.27h2.33v-1.83h-2.33zm.2-1.63h1.93v1.43h-1.93z"/><path d="m563.56 120.27h2.33v-1.83h-2.33zm.2-1.63h1.93v1.43h-1.93z"/><path d="m560.32 120.27h2.33v-1.83h-2.33zm.2-1.63h1.93v1.43h-1.93z"/><path d="m595.97 123h2.33v-1.83h-2.33zm.2-1.63h1.93v1.43h-1.93z"/><path d="m599.21 123h2.33v-1.83h-2.33zm.2-1.63h1.93v1.43h-1.93z"/><path d="m592.73 123h2.33v-1.83h-2.33zm.2-1.63h1.93v1.43h-1.93z"/><path d="m589.49 123h2.33v-1.83h-2.33zm.2-1.63h1.93v1.43h-1.93z"/><path d="m586.24 123h2.33v-1.83h-2.33zm.2-1.63h1.93v1.43h-1.93z"/><path d="m583 123h2.33v-1.83h-2.33zm.2-1.63h1.93v1.43h-1.93z"/><path d="m579.76 123h2.33v-1.83h-2.33zm.2-1.63h1.93v1.43h-1.93z"/><path d="m576.52 123h2.33v-1.83h-2.33zm.2-1.63h1.93v1.43h-1.93z"/><path d="m573.28 123h2.33v-1.83h-2.33zm.2-1.63h1.93v1.43h-1.93z"/><path d="m570.04 123h2.33v-1.83h-2.33zm.2-1.63h1.93v1.43h-1.93z"/><path d="m566.8 123h2.33v-1.83h-2.33zm.2-1.63h1.93v1.43h-1.93z"/><path d="m563.56 123h2.33v-1.83h-2.33zm.2-1.63h1.93v1.43h-1.93z"/><path d="m560.32 123h2.33v-1.83h-2.33zm.2-1.63h1.93v1.43h-1.93z"/><path d="m595.97 125.74h2.33v-1.83h-2.33zm.2-1.63h1.93v1.43h-1.93z"/><path d="m599.21 125.74h2.33v-1.83h-2.33zm.2-1.63h1.93v1.43h-1.93z"/><path d="m592.73 125.74h2.33v-1.83h-2.33zm.2-1.63h1.93v1.43h-1.93z"/><path d="m589.49 125.74h2.33v-1.83h-2.33zm.2-1.63h1.93v1.43h-1.93z"/><path d="m586.24 125.74h2.33v-1.83h-2.33zm.2-1.63h1.93v1.43h-1.93z"/><path d="m583 125.74h2.33v-1.83h-2.33zm.2-1.63h1.93v1.43h-1.93z"/><path d="m579.76 125.74h2.33v-1.83h-2.33zm.2-1.63h1.93v1.43h-1.93z"/><path d="m576.52 125.74h2.33v-1.83h-2.33zm.2-1.63h1.93v1.43h-1.93z"/><path d="m573.28 125.74h2.33v-1.83h-2.33zm.2-1.63h1.93v1.43h-1.93z"/><path d="m570.04 125.74h2.33v-1.83h-2.33zm.2-1.63h1.93v1.43h-1.93z"/><path d="m566.8 125.74h2.33v-1.83h-2.33zm.2-1.63h1.93v1.43h-1.93z"/><path d="m563.56 125.74h2.33v-1.83h-2.33zm.2-1.63h1.93v1.43h-1.93z"/><path d="m560.32 125.74h2.33v-1.83h-2.33zm.2-1.63h1.93v1.43h-1.93z"/><path d="m595.97 128.47h2.33v-1.83h-2.33zm.2-1.63h1.93v1.43h-1.93z"/><path d="m599.21 128.47h2.33v-1.83h-2.33zm.2-1.63h1.93v1.43h-1.93z"/><path d="m592.73 128.47h2.33v-1.83h-2.33zm.2-1.63h1.93v1.43h-1.93z"/><path d="m589.49 128.47h2.33v-1.83h-2.33zm.2-1.63h1.93v1.43h-1.93z"/><path d="m586.24 128.47h2.33v-1.83h-2.33zm.2-1.63h1.93v1.43h-1.93z"/><path d="m583 128.47h2.33v-1.83h-2.33zm.2-1.63h1.93v1.43h-1.93z"/><path d="m579.76 128.47h2.33v-1.83h-2.33zm.2-1.63h1.93v1.43h-1.93z"/><path d="m576.52 128.47h2.33v-1.83h-2.33zm.2-1.63h1.93v1.43h-1.93z"/><path d="m573.28 128.47h2.33v-1.83h-2.33zm.2-1.63h1.93v1.43h-1.93z"/><path d="m570.04 128.47h2.33v-1.83h-2.33zm.2-1.63h1.93v1.43h-1.93z"/><path d="m566.8 128.47h2.33v-1.83h-2.33zm.2-1.63h1.93v1.43h-1.93z"/><path d="m563.56 128.47h2.33v-1.83h-2.33zm.2-1.63h1.93v1.43h-1.93z"/><path d="m560.32 128.47h2.33v-1.83h-2.33zm.2-1.63h1.93v1.43h-1.93z"/><path d="m595.97 131.21h2.33v-1.83h-2.33zm.2-1.63h1.93v1.43h-1.93z"/><path d="m599.21 131.21h2.33v-1.83h-2.33zm.2-1.63h1.93v1.43h-1.93z"/><path d="m592.73 131.21h2.33v-1.83h-2.33zm.2-1.63h1.93v1.43h-1.93z"/><path d="m589.49 131.21h2.33v-1.83h-2.33zm.2-1.63h1.93v1.43h-1.93z"/><path d="m586.24 131.21h2.33v-1.83h-2.33zm.2-1.63h1.93v1.43h-1.93z"/><path d="m583 131.21h2.33v-1.83h-2.33zm.2-1.63h1.93v1.43h-1.93z"/><path d="m579.76 131.21h2.33v-1.83h-2.33zm.2-1.63h1.93v1.43h-1.93z"/><path d="m576.52 131.21h2.33v-1.83h-2.33zm.2-1.63h1.93v1.43h-1.93z"/><path d="m573.28 131.21h2.33v-1.83h-2.33zm.2-1.63h1.93v1.43h-1.93z"/><path d="m570.04 131.21h2.33v-1.83h-2.33zm.2-1.63h1.93v1.43h-1.93z"/><path d="m566.8 131.21h2.33v-1.83h-2.33zm.2-1.63h1.93v1.43h-1.93z"/><path d="m563.56 131.21h2.33v-1.83h-2.33zm.2-1.63h1.93v1.43h-1.93z"/><path d="m560.32 131.21h2.33v-1.83h-2.33zm.2-1.63h1.93v1.43h-1.93z"/><path d="m595.97 133.94h2.33v-1.83h-2.33zm.2-1.63h1.93v1.43h-1.93z"/><path d="m599.21 133.94h2.33v-1.83h-2.33zm.2-1.63h1.93v1.43h-1.93z"/><path d="m592.73 133.94h2.33v-1.83h-2.33zm.2-1.63h1.93v1.43h-1.93z"/><path d="m589.49 133.94h2.33v-1.83h-2.33zm.2-1.63h1.93v1.43h-1.93z"/><path d="m586.24 133.94h2.33v-1.83h-2.33zm.2-1.63h1.93v1.43h-1.93z"/><path d="m583 133.94h2.33v-1.83h-2.33zm.2-1.63h1.93v1.43h-1.93z"/><path d="m579.76 133.94h2.33v-1.83h-2.33zm.2-1.63h1.93v1.43h-1.93z"/><path d="m576.52 133.94h2.33v-1.83h-2.33zm.2-1.63h1.93v1.43h-1.93z"/><path d="m573.28 133.94h2.33v-1.83h-2.33zm.2-1.63h1.93v1.43h-1.93z"/><path d="m570.04 133.94h2.33v-1.83h-2.33zm.2-1.63h1.93v1.43h-1.93z"/><path d="m566.8 133.94h2.33v-1.83h-2.33zm.2-1.63h1.93v1.43h-1.93z"/><path d="m563.56 133.94h2.33v-1.83h-2.33zm.2-1.63h1.93v1.43h-1.93z"/><path d="m560.32 133.94h2.33v-1.83h-2.33zm.2-1.63h1.93v1.43h-1.93z"/><path d="m595.97 136.68h2.33v-1.83h-2.33zm.2-1.63h1.93v1.43h-1.93z"/><path d="m599.21 136.68h2.33v-1.83h-2.33zm.2-1.63h1.93v1.43h-1.93z"/><path d="m592.73 136.68h2.33v-1.83h-2.33zm.2-1.63h1.93v1.43h-1.93z"/><path d="m589.49 136.68h2.33v-1.83h-2.33zm.2-1.63h1.93v1.43h-1.93z"/><path d="m586.24 136.68h2.33v-1.83h-2.33zm.2-1.63h1.93v1.43h-1.93z"/><path d="m583 136.68h2.33v-1.83h-2.33zm.2-1.63h1.93v1.43h-1.93z"/><path d="m579.76 136.68h2.33v-1.83h-2.33zm.2-1.63h1.93v1.43h-1.93z"/><path d="m576.52 136.68h2.33v-1.83h-2.33zm.2-1.63h1.93v1.43h-1.93z"/><path d="m573.28 136.68h2.33v-1.83h-2.33zm.2-1.63h1.93v1.43h-1.93z"/><path d="m570.04 136.68h2.33v-1.83h-2.33zm.2-1.63h1.93v1.43h-1.93z"/><path d="m566.8 136.68h2.33v-1.83h-2.33zm.2-1.63h1.93v1.43h-1.93z"/><path d="m563.56 136.68h2.33v-1.83h-2.33zm.2-1.63h1.93v1.43h-1.93z"/><path d="m560.32 136.68h2.33v-1.83h-2.33zm.2-1.63h1.93v1.43h-1.93z"/><path d="m595.97 139.42h2.33v-1.83h-2.33zm.2-1.63h1.93v1.43h-1.93z"/><path d="m599.21 139.42h2.33v-1.83h-2.33zm.2-1.63h1.93v1.43h-1.93z"/><path d="m592.73 139.42h2.33v-1.83h-2.33zm.2-1.63h1.93v1.43h-1.93z"/><path d="m589.49 139.42h2.33v-1.83h-2.33zm.2-1.63h1.93v1.43h-1.93z"/><path d="m586.24 139.42h2.33v-1.83h-2.33zm.2-1.63h1.93v1.43h-1.93z"/><path d="m583 139.42h2.33v-1.83h-2.33zm.2-1.63h1.93v1.43h-1.93z"/><path d="m579.76 139.42h2.33v-1.83h-2.33zm.2-1.63h1.93v1.43h-1.93z"/><path d="m576.52 139.42h2.33v-1.83h-2.33zm.2-1.63h1.93v1.43h-1.93z"/><path d="m573.28 139.42h2.33v-1.83h-2.33zm.2-1.63h1.93v1.43h-1.93z"/><path d="m570.04 139.42h2.33v-1.83h-2.33zm.2-1.63h1.93v1.43h-1.93z"/><path d="m566.8 139.42h2.33v-1.83h-2.33zm.2-1.63h1.93v1.43h-1.93z"/><path d="m563.56 139.42h2.33v-1.83h-2.33zm.2-1.63h1.93v1.43h-1.93z"/><path d="m560.32 139.42h2.33v-1.83h-2.33zm.2-1.63h1.93v1.43h-1.93z"/><path d="m595.97 142.15h2.33v-1.83h-2.33zm.2-1.63h1.93v1.43h-1.93z"/><path d="m599.21 142.15h2.33v-1.83h-2.33zm.2-1.63h1.93v1.43h-1.93z"/><path d="m592.73 142.15h2.33v-1.83h-2.33zm.2-1.63h1.93v1.43h-1.93z"/><path d="m589.49 142.15h2.33v-1.83h-2.33zm.2-1.63h1.93v1.43h-1.93z"/><path d="m586.24 142.15h2.33v-1.83h-2.33zm.2-1.63h1.93v1.43h-1.93z"/><path d="m583 142.15h2.33v-1.83h-2.33zm.2-1.63h1.93v1.43h-1.93z"/><path d="m579.76 142.15h2.33v-1.83h-2.33zm.2-1.63h1.93v1.43h-1.93z"/><path d="m576.52 142.15h2.33v-1.83h-2.33zm.2-1.63h1.93v1.43h-1.93z"/><path d="m573.28 142.15h2.33v-1.83h-2.33zm.2-1.63h1.93v1.43h-1.93z"/><path d="m570.04 142.15h2.33v-1.83h-2.33zm.2-1.63h1.93v1.43h-1.93z"/><path d="m566.8 142.15h2.33v-1.83h-2.33zm.2-1.63h1.93v1.43h-1.93z"/><path d="m563.56 142.15h2.33v-1.83h-2.33zm.2-1.63h1.93v1.43h-1.93z"/><path d="m560.32 142.15h2.33v-1.83h-2.33zm.2-1.63h1.93v1.43h-1.93z"/><path d="m595.97 90.18h2.33v-1.83h-2.33zm.2-1.63h1.93v1.43h-1.93z"/><path d="m599.21 90.18h2.33v-1.83h-2.33zm.2-1.63h1.93v1.43h-1.93z"/><path d="m592.73 90.18h2.33v-1.83h-2.33zm.2-1.63h1.93v1.43h-1.93z"/><path d="m589.49 90.18h2.33v-1.83h-2.33zm.2-1.63h1.93v1.43h-1.93z"/><path d="m586.24 90.18h2.33v-1.83h-2.33zm.2-1.63h1.93v1.43h-1.93z"/><path d="m583 90.18h2.33v-1.83h-2.33zm.2-1.63h1.93v1.43h-1.93z"/><path d="m579.76 90.18h2.33v-1.83h-2.33zm.2-1.63h1.93v1.43h-1.93z"/><path d="m576.52 90.18h2.33v-1.83h-2.33zm.2-1.63h1.93v1.43h-1.93z"/><path d="m573.28 90.18h2.33v-1.83h-2.33zm.2-1.63h1.93v1.43h-1.93z"/></g></g><g clip-path="url(#c)"><g opacity=".3"><path d="m212.51 160.46-1.17.03c1.23-1.27 3.33-3.64 3.33-3.64v3.08l-1.22.05-.95.47zm6.22-.68-2.94.12v-2.99c.79.81 2.15 2.08 2.94 2.87zm5.14-3.37v3.16l-3.31.12c.95-.91 2.47-2.47 3.31-3.28zm4.06 2.99-2.94.12v-3.06c.79.81 2.16 2.15 2.94 2.94zm5.09-3.3v3.09l-3.31.14c.95-.91 2.49-2.42 3.31-3.23zm4.01 2.94-2.88.12v-3.01c.78.79 2.08 2.1 2.88 2.89zm5.36-3.23v3.03l-3.23.12c.95-.91 2.42-2.37 3.23-3.14zm4.01 2.86-2.87.12v-2.92c.78.78 2.08 2.01 2.87 2.81zm5.43-3.3v3.1l-3.25.12c.96-.93 2.42-2.43 3.25-3.21zm4.01 2.94-2.89.1v-2.99c.78.8 2.08 2.08 2.89 2.89zm5.21-3.25v3.03l-3.23.13c.95-.93 2.42-2.37 3.23-3.16zm4.01 2.88-2.87.12v-2.92c.78.78 2.08 2.01 2.87 2.81zm5.26-3.3v3.1l-3.25.12c.95-.93 2.43-2.44 3.25-3.21zm4.01 2.92-2.89.12v-2.99c.78.8 2.1 2.08 2.89 2.87zm5.43-3.23v3.03l-3.25.12c.95-.91 2.42-2.37 3.25-3.15zm4.03 2.86-2.91.12v-2.92c.78.81 2.11 2.03 2.91 2.81zm5.12-3.35v3.16l-3.28.12c.95-.93 2.45-2.49 3.28-3.28zm4.11 2.99-2.98.12v-3.06c.8.83 2.18 2.15 2.98 2.94zm5.38-3.37v3.15l-3.33.13c.95-.91 2.48-2.47 3.33-3.28zm4.04 2.99-2.91.12v-3.06c.78.81 2.11 2.13 2.91 2.94zm5.26-3.21v3.01l-3.26.13c.95-.91 2.44-2.37 3.26-3.14zm4.01 2.84-2.89.12v-2.91c.78.78 2.1 2.01 2.89 2.79zm5.19-3.31v3.11l-3.26.13c.95-.93 2.44-2.45 3.26-3.25zm4.09 2.96-2.98.12v-3.03c.81.83 2.18 2.11 2.98 2.91zm5.19-3.4v3.2l-3.33.13c.93-.93 2.48-2.5 3.33-3.33zm4.04 3.04-2.91.1v-3.08c.78.8 2.11 2.17 2.91 2.98zm-125.44 5.33v-3.35c.71.93 1.96 2.54 2.57 3.26zm-1.03.03-2.94.1c.86-1.03 2.2-2.64 2.94-3.55zm-7.25.27v-3.45c.71.9 1.88 2.42 2.6 3.35zm-1.01.03-3.03.1c.86-1.03 2.25-2.72 3.03-3.65zm-7.41.27v-3.5c.71.91 1.93 2.47 2.64 3.4zm-1.01.03-3.04.1c.86-1.05 2.27-2.77 3.04-3.7zm-7.25.25v-3.47c.73.91 1.94 2.45 2.67 3.36l-2.67.1zm-1.03.03-3.03.12c.86-1.05 2.27-2.76 3.03-3.69zm-7.51.27v-3.55c.74.93 1.98 2.54 2.7 3.45zm-1.01.03-3.08.12c.85-1.03 2.3-2.81 3.08-3.75v3.64zm-7.19.25v-3.55c.74.95 2.01 2.56 2.72 3.45zm-1.01.03-3.08.12c.86-1.03 2.28-2.82 3.08-3.77zm-7.25.27v-3.53c.74.95 2 2.52 2.72 3.43zm-1.01.03-3.06.1c.86-1.03 2.28-2.79 3.06-3.72zm-7.22.25v-3.5c.73.95 1.98 2.49 2.69 3.4zm-1.01.03-3.06.12c.86-1.05 2.27-2.77 3.06-3.7zm-7.22.25v-3.52c.73.93 1.98 2.5 2.69 3.43l-2.69.08zm-1.01.03-3.08.1c.86-1.03 2.28-2.77 3.08-3.72zm-7.35.24v-3.54c.73.95 2 2.54 2.7 3.45zm-1.01.03-3.13.1c.86-1.01 2.33-2.77 3.13-3.74zm-7.25.24v-3.65c.74.96 2.05 2.65 2.76 3.57l-2.76.09zm-1.01.03-3.18.12c.85-1.01 2.37-2.87 3.18-3.86zm-7.32.25v-3.65c.76.98 2.1 2.65 2.79 3.55zm-1.01.03-3.16.1c.84-1.01 2.35-2.87 3.16-3.84zm-7.32.24v-3.62c.76.96 2.1 2.62 2.79 3.52zm-1.01.03-3.14.1c.84-1.01 2.33-2.86 3.14-3.82zm-7.44.24v-3.6c.76.96 2.08 2.62 2.77 3.52l-2.77.09zm-1.01.03-3.15.12c.85-1.03 2.33-2.86 3.15-3.82zm-7.44.25v-3.6c.74.96 2.06 2.6 2.77 3.52l-2.77.09zm-1.01.03-3.14.1c.84-1.03 2.33-2.84 3.14-3.8zm-7.32.24v-3.74c.76 1 2.06 2.71 2.77 3.65zm-1.01.03-3.15.1c.85-1.05 2.33-2.93 3.15-3.94zm-7.44.25v-3.81c.74 1.01 2.08 2.77 2.77 3.7l-2.77.1zm-1.03.03-3.15.1c.85-1.07 2.33-2.99 3.15-4.01zm-7.44.24v-3.72c.76 1 2.08 2.69 2.77 3.62zm-1.01.03-3.09.1c.84-1.08 2.3-2.94 3.09-3.92zm-5.83.18-1.42.05v-3.67c.74.98 2.01 2.62 2.72 3.57zm-2.43.09-3.01.1c.86-1.1 2.25-2.92 3.01-3.87zm-7.37.25v-3.52c.71.96 1.93 2.49 2.64 3.43zm-1.03.03-2.98.12c.86-1.08 2.23-2.79 2.98-3.74zm-7.47.27v-3.62c.71.95 1.91 2.55 2.64 3.53zm-1.01.03-2.98.1c.86-1.1 2.22-2.89 2.98-3.82zm-7.48.27v-3.48c.71.93 1.89 2.43 2.62 3.38zm-1.01.03-2.91.1c.86-1.1 2.17-2.77 2.91-3.69v3.58zm-7.48.25v-3.45c.68.9 1.83 2.4 2.55 3.37zm-1.03.03-2.92.12c.86-1.08 2.18-2.76 2.92-3.67zm-7.47.27v-3.57c.69.91 1.86 2.5 2.59 3.48l-2.59.08zm-1.01.03-3.03.12c.86-1.08 2.25-2.82 3.03-3.79zm320.25-11.79-.07-.05v-.18h-.15l-3.67-3.96-1.54.07-4.18 4.08-3.74-3.72-1.35.07-4.11 4.09-3.57-3.67h-1.57l-4.13 4.11-3.58-3.75h-1.59l-4.28 4.16-3.62-3.79h-1.59l-4.18 4.04-3.4-3.55h-1.59l-4.16 4.03h-.12l-3.57-3.72h-1.59l-4.19 4.08-3.47-3.64h-1.59l-4.11 3.97-3.53-3.69h-1.59l-4.21 4.09h-.12l-3.5-3.65h-1.59l-4.16 4.02h-.05l-3.57-3.74h-1.59l-4.08 3.96-3.5-3.65h-1.59l-4.16 4.04-3.45-3.6h-1.59l-4.16 4.5-2.05.09-3.38-4.28h-1.2l-3.74 4.46-3.33-4.28h-1.2l-3.85 4.6-3.38-4.33h-1.2l-3.79 4.53-3.28-4.21h-1.18l-3.89 4.63-3.45-4.41h-1.2l-3.74 4.48-3.26-4.19h-1.2l-3.79 4.53-3.28-4.21h-1.2l-3.77 4.52-3.28-4.19h-1.18l-3.75 4.48-3.3-4.21h-1.2l-3.8 4.55-3.35-4.3h-1.2l-3.74 4.45-3.33-4.3h-1.2l-3.82 4.57-3.31-4.28h-1.2l-3.82 4.57-3.31-4.28h-1.2l-3.87 4.63-3.38-4.35h-1.2l-3.89 4.65-3.38-4.35h-1.19l-3.8 4.53-3.33-4.45h-1.2l-3.85 4.79-3.42-4.55h-1.2l-3.91 4.84-3.35-4.48h-1.2l-3.79 4.68-3.28-4.38h-1.2l-3.91 4.85-3.3-4.4h-1.2l-3.85 4.79-3.43-4.6h-1.2l-3.94 4.89-.02.02-3.35-4.46h-1.2l-3.82 4.75h-.14l-3.33-4.55h-1.2l-3.8 4.85h-.09l-3.4-4.55h-1.2l-3.92 4.72-.22.14v.71l49.04-1.73 19.48-.63 66.64-2.2 70.41-2.52.95-.47 117.88-4.63v-.46l.07-.02z" fill="none" stroke="#fff" stroke-width="1.13"/><path d="m917.04 165.9v-3.74c.91 1 2.62 2.87 3.57 3.87l-3.57-.14zm-1.15-.03-3.04-.12c.78-.9 2.21-2.57 3.04-3.53zm-8.23-.3v-3.65c.88.98 2.53 2.76 3.47 3.79l-3.47-.13zm-1.12-.03-3.01-.1c.8-.93 2.18-2.52 3.01-3.45zm-8.25-.29v-3.57c.84.93 2.42 2.65 3.36 3.69zm-1.13-.05-2.92-.1c.79-.93 2.15-2.45 2.92-3.37zm-8.34-.3v-3.5c.83.9 2.35 2.59 3.3 3.64zm-1.13-.03-2.96-.1c.79-.91 2.15-2.38 2.96-3.31v3.42zm-8.3-.29v-3.65c.84.93 2.4 2.71 3.36 3.77zm-1.13-.05-2.96-.1c.81-.93 2.16-2.5 2.96-3.43zm-8.29-.29v-3.52c.84.91 2.38 2.59 3.35 3.64zm-1.13-.05-2.86-.1c.79-.93 2.1-2.42 2.86-3.31zm-5.71-.2-2.45-.07v-3.45c.83.9 2.3 2.5 3.27 3.55l-.81-.03zm-3.59-.1-2.82-.08c.8-.93 2.08-2.38 2.82-3.26v3.35zm-7.96-.22v-3.43c.73.88 2.03 2.47 2.89 3.52zm-1.03-.03-2.57-.07c.73-.93 1.9-2.38 2.57-3.28zm-7.1-.2v-3.48c.74.88 2.06 2.52 2.94 3.57l-2.94-.08zm-1.03-.02-2.6-.08c.71-.93 1.91-2.42 2.6-3.33v3.42zm-7.22-.22v-3.55c.74.91 2.13 2.59 2.99 3.64zm-1.03-.02-2.67-.09c.73-.91 1.95-2.45 2.67-3.38zm-7.35-.22v-3.6c.78.93 2.18 2.65 3.03 3.69zm-1.03-.02-2.7-.09c.71-.91 1.98-2.48 2.7-3.43zm-7.27-.22v-3.69c.79.95 2.23 2.76 3.1 3.79zm-1.01-.02-2.79-.08c.71-.9 2.03-2.54 2.79-3.52zm-7.29-.22v-3.75c.83.96 2.33 2.84 3.16 3.86l-3.16-.1zm-1.01-.02-2.81-.09c.68-.88 2.03-2.6 2.81-3.6zm-4.18-.12s-1.19-.05-3.1-.13v-3.74c.81 1 2.35 2.87 3.18 3.87zm-4.12-.18c-.81-.03-1.71-.07-2.67-.1.73-.93 1.95-2.59 2.67-3.52zm-6.88-.29v-3.67c.79.96 2.25 2.77 3.09 3.81-.98-.05-2.01-.09-3.09-.14zm-1.03-.03c-.83-.05-1.71-.08-2.57-.12.73-.96 1.88-2.57 2.57-3.45zm-7.32-.32v-3.23c.73.88 2.01 2.33 2.89 3.35-.96-.03-1.93-.08-2.89-.12zm-1.03-.05c-.83-.03-1.67-.05-2.48-.1.74-.9 1.82-2.16 2.48-3.01zm-7.22-.29v-3.45c.71.85 1.96 2.49 2.82 3.57-.98-.05-1.93-.09-2.82-.12zm-1.01-.05c-.91-.03-1.76-.07-2.57-.1.74-.93 1.88-2.37 2.57-3.25zm-7.24-.29v-3.38c.73.88 2.02 2.45 2.88 3.5-1.2-.05-2.18-.1-2.88-.12zm-1.03-.03h-.09c-.22 0-1.12-.03-2.43-.08.72-.93 1.86-2.35 2.52-3.21v3.3zm-7.21-.27v-3.35c.73.86 2 2.42 2.86 3.47-.88-.03-1.84-.07-2.86-.12zm-1.01-.03c-.81-.03-1.62-.07-2.42-.1.73-.95 1.78-2.33 2.42-3.14v3.25zm-7.15-.29v-3.31c.74.84 2.06 2.4 2.98 3.43-1.05-.03-2.06-.07-2.98-.12zm-1.07-.03c-1.1-.05-2-.09-2.56-.1.78-.95 1.88-2.3 2.56-3.13zm-122.74-7.86v3.06c-1.18-.05-2.16-.1-2.87-.14.79-.81 2.1-2.15 2.87-2.92zm4.55 3.28c-1.23-.05-2.38-.1-3.41-.15v-3.18c.88.83 2.49 2.44 3.41 3.33zm4.64-2.94v3.16c-1.05-.05-2.08-.1-3.04-.14.78-.8 2.21-2.18 3.04-3.03zm4.4 3.35c-1.12-.05-2.2-.1-3.27-.13v-3.26c.83.79 2.3 2.43 3.27 3.4zm4.95-2.99v3.21c-.98-.05-1.95-.09-2.91-.14.79-.83 2.11-2.3 2.91-3.08zm4.66 3.38c-1.17-.03-2.35-.09-3.55-.14v-3.31c.91.88 2.62 2.57 3.55 3.45zm4.65-2.83v2.99c-1.01-.03-2.08-.07-3.14-.1.76-.76 2.28-2.03 3.14-2.89zm4.45 3.13c-1.07-.02-2.16-.05-3.31-.1v-3.1c.84.81 2.37 2.28 3.31 3.2zm4.95-2.86v2.99c-1.13-.03-2.13-.05-2.92-.07.8-.81 2.15-2.13 2.92-2.92zm4.47 3.14c-1.22-.05-2.32-.08-3.33-.12v-3.1c.84.81 2.38 2.3 3.33 3.21zm4.7-2.89v3.04c-1.03-.03-2.01-.07-2.96-.1.79-.79 2.15-2.13 2.96-2.94zm4.43 3.21c-1.15-.05-2.25-.09-3.32-.12v-3.14c.84.79 2.37 2.33 3.32 3.26zm4.97-2.79v2.98c-.98-.03-1.96-.08-2.92-.12.79-.8 2.15-2.06 2.92-2.86zm4.47 3.15c-1.13-.05-2.23-.09-3.32-.14v-3.06c.83.8 2.35 2.27 3.32 3.2zm4.77-2.88v3.04c-.98-.03-1.96-.07-2.94-.1.79-.81 2.15-2.15 2.94-2.94zm4.53 3.21c-1.13-.03-2.27-.08-3.4-.12v-3.16c.86.83 2.47 2.38 3.4 3.28zm4.92-2.96v3.16c-1.01-.05-2.03-.08-3.03-.12.78-.8 2.2-2.2 3.03-3.04zm4.58 3.33c-1.15-.03-2.3-.09-3.45-.14v-3.25c.88.85 2.5 2.49 3.45 3.38zm4.73-2.94v3.13c-1.01-.03-2.03-.08-3.06-.12.78-.78 2.23-2.15 3.06-3.01zm4.57 3.31c-1.13-.05-2.28-.1-3.43-.14v-3.23c.88.85 2.49 2.45 3.43 3.37zm4.77-2.92v3.11c-1-.05-2.01-.08-3.04-.12.78-.79 2.21-2.15 3.04-2.99zm4.53 3.28c-1.12-.03-2.25-.09-3.41-.14v-3.19c.88.83 2.47 2.43 3.41 3.33zm4.79-2.87v3.08c-.96-.05-1.98-.09-3.03-.12.8-.79 2.2-2.13 3.03-2.96zm4.55 3.25c-1.08-.03-2.21-.09-3.41-.14v-3.18c.88.83 2.47 2.42 3.41 3.31zm4.65-2.94v3.13c-.91-.03-1.93-.07-3.03-.12.78-.78 2.2-2.16 3.03-3.01zm4.68 3.33c-.78-.03-2-.09-3.55-.15v-3.23c.91.86 2.64 2.5 3.55 3.38zm177.19 6.26-.81-.03-4.67-5.23h-1.05l-3.91 4.68-4.43-4.94h-1.05l-3.9 4.68-4.41-4.92h-1.05l-3.91 4.7h-.03l-4.47-4.99h-1.07l-3.84 4.6-4.53-5.07h-1.06l-3.93 4.73-4.43-4.94h-1.07l-3.86 4.63-4.38-4.89h-1.07l-3.86 4.63-.25-.02-3.94-4.85h-.95l-3.33 4.45-3.84-4.73h-.96l-3.4 4.53-3.89-4.82h-.96l-3.47 4.6-3.95-4.9h-.96l-3.42 4.55-3.92-4.87h-.95l-3.43 4.55-3.92-4.85h-.95l-3.45 4.58-3.91-4.84h-.95l-3.25 4.33-3.72-4.6h-.95l-3.6 4.79-3.81-4.7h-.95l-3.28 4.38h-.04l-3.99-4.94h-.95l-3.42 4.53-3.89-4.8h-.95l-3.4 4.51-3.87-4.78h-.96l-3.27 4.35-3.94-4.63h-1l-3.52 4.45-1.81-.14-4.4-4.24h-1.61l-3.5 3.65-4.11-3.96h-1.59l-3.52 3.65-4.21-4.06h-1.59l-3.53 3.67-4.19-4.06h-1.61l-3.52 3.67-4.21-4.06h-1.59l-3.65 3.79-4.21-4.04h-1.59l-3.53 3.67-4.09-3.94h-1.59l-3.57 3.69-4.26-4.09h-1.61l-3.5 3.64-4.06-3.91h-1.59l-3.62 3.75-4.19-4.03h-1.59l-3.62 3.47-4.11-4.03h-1.59l-3.57 3.69-4.19-4.03h-1.59l-3.48 3.6-4.11-3.96h-1.59l-3.62 3.75c-.29-.02-.44-.02-.44-.02l.12.78s24.99 1.27 38.35 1.57c13.36.32 83.3 3.15 83.3 3.15l2.2.17s18.47.74 19.53.74 36.97 1.54 36.97 1.54l58.14 1.66 59.35 2.11-.12-.78z" fill="none" stroke="#fff" stroke-width="1.13"/><path d="m501.32 147.02h1.39l-.69-.91-.69.91zm9.59.15h1.39l-.69-.93-.69.93z" fill="none" stroke="#fff" stroke-width="1.13"/><path d="m922.67 158.97-174.9-5.17-.29 1.67 175.19 5.55" fill="#14509f"/><path d="m922.67 158.97-174.9-5.17-.29 1.67 175.19 5.55" fill="none" stroke="#fff" stroke-width="1.13"/><path d="m865.21 187.2-.64-21.06h-2.01l-.66 21.06z" fill="#14509f"/><path d="m865.21 187.2-.64-21.06h-2.01l-.66 21.06z" fill="none" stroke="#fff" stroke-width="1.13"/><path d="m862.56 166.08h2.01l-1.05-1.37z" fill="#14509f"/><path d="m862.56 166.08h2.01l-1.05-1.37z" fill="none" stroke="#fff" stroke-linejoin="bevel" stroke-width="1.13"/><path d="m804.11 164.67h2.02l-1.05-1.35z" fill="#14509f"/><path d="m804.11 164.67h2.02l-1.05-1.35z" fill="none" stroke="#fff" stroke-linejoin="bevel" stroke-width="1.13"/><path d="m806.82 186.97-.76-22.3h-1.86l-.54 22.3z" fill="#14509f"/><path d="m806.82 186.97-.76-22.3h-1.86l-.54 22.3z" fill="none" stroke="#fff" stroke-width="1.13"/><path d="m923.8 186.21-.62-18.88h-1.32l-.8 18.88z" fill="#14509f"/><path d="m923.8 186.21-.62-18.88h-1.32l-.8 18.88z" fill="none" stroke="#fff" stroke-width="1.13"/><path d="m921.86 167.26 1.32.01-.69-1.18z" fill="#14509f"/><path d="m921.86 167.26 1.32.01-.69-1.18z" fill="none" stroke="#fff" stroke-linejoin="bevel" stroke-width="1.13"/><path d="m923.18 166.08-1.37-.02.03-7.11h1.37z" fill="#14509f"/><path d="m923.18 166.08-1.37-.02.03-7.11h1.37z" fill="none" stroke="#fff" stroke-width="1.13"/><path d="m744.32 161.73h3.4v24.52h-3.4z" fill="#14509f"/><path d="m744.32 161.73h3.4v24.52h-3.4z" fill="none" stroke="#fff" stroke-width="1.13"/><path d="m744.3 161.68h1.78l-.9-.98z" fill="#14509f"/><path d="m744.3 161.68h1.78l-.9-.98z" fill="none" stroke="#fff" stroke-linejoin="bevel" stroke-width="1.13"/><path d="m746.04 161.68h1.71l-.83-.98z" fill="#14509f"/><path d="m746.04 161.68h1.71l-.83-.98z" fill="none" stroke="#fff" stroke-linejoin="bevel" stroke-width="1.13"/><path d="m207.75 162.59h3.4v24.94h-3.4z" fill="#14509f"/><path d="m207.75 162.59h3.4v24.94h-3.4z" fill="none" stroke="#fff" stroke-width="1.13"/><path d="m207.74 162.54h1.77l-.89-1.35z" fill="#14509f"/><path d="m207.74 162.54h1.77l-.89-1.35z" fill="none" stroke="#fff" stroke-linejoin="bevel" stroke-width="1.13"/><path d="m209.46 162.54h1.73l-.85-1.35z" fill="#14509f"/><g fill="none" stroke="#fff" stroke-width="1.13"><path d="m209.46 162.54h1.73l-.85-1.35z" stroke-linejoin="bevel"/><path d="m529.13 147.46h1.39l-.69-.93-.69.93zm9.71.22h1.39l-.69-.93-.69.93zm9.08.07h1.39l-.69-.93-.69.93zm8.98.13h1.39l-.69-.91-.69.91zm10.06.15h1.4l-.69-.93zm9 .14h1.39l-.69-.91-.69.91zm9.37.15h1.39l-.69-.93-.69.93zm9.18.12h1.39l-.69-.93-.69.93zm51.88 1.69h1.38l-.67-.93zm9.45.24h1.4l-.69-.93zm9.66.42h1.38l-.69-.93zm73.79 2.99h1.39l-.69-1.25zm-9.16-.37h1.38l-.69-1.19zm-9.37-.37h1.4l-.69-1.17zm-9.05-.24h1.38l-.69-1.19zm-9.32-.53h1.39l-.7-1.13zm-9.74-.37h1.44l-.69-1.12-.74 1.12zm-9.17-.47h1.38l-.67-.91zm-8.89-.36h1.4l-.69-.93zm-27.38-1.66-25.82-39.33-26.14 37.36m61.26 1.98-35.12-41.7-35.34 39.64m80.14 2.5-44.86-44.32-44.6 41.62m98.55 2.94-53.89-46.93-53.69 43.88m116.49 3.47-62.81-49.48-63.72 45.83m135.69 3.84-71.97-52.64-72.73 48.7m154.39 4.31-81.36-55.11-82.13 50.82m172.81 4.77-90.98-57.82-91.57 52.79m191.65 5.31-100.08-60.47m109.41 60.81-109.37-63.89-109.83 57.95m228.34 6.21-118.48-66.29-119.45 59.95m18.57.32 100.82-55.06"/><path d="m519.89 147.35h1.38l-.69-.93z"/><path d="m427.2 147.46h-1.39l.69-.93.69.93zm-9.71.22h-1.39l.68-.93zm-9.08.1h-1.39l.69-.96.69.96zm-8.98.22h-1.39l.69-1.03.69 1.03zm-10.08.13h-1.39l.69-1.03.69 1.03zm-8.95.15-1.44.02.69-1.05.74 1.03zm-9.4.24h-1.39l.69-1.13.69 1.13zm-9.17.15-1.47.02.76-1.18.71 1.17zm-51.9 1.45h-1.4l.69-.93zm-9.47.39h-1.39l.69-1.08.69 1.08zm-9.64.42h-1.39l.69-1.08.69 1.08zm-73.68 3.28h-1.4l.73-1.13.68 1.13zm8.96-.41h-1.39l.73-1.01zm9.35-.57h-1.39l.71-.91zm9.08-.46h-1.39l.69-.91.69.91zm9.11-.18h-1.39l.71-1.15zm9.96-.44h-1.44l.74-1.37.69 1.37zm9.17-.41h-1.39l.73-1.23zm8.86-.41h-1.39l.76-1.2zm27.46-1.93 25.82-39.33 26.13 37.36m-61.25 1.98 35.12-41.7 35.34 39.64m-80.14 2.5 44.86-44.32 44.63 41.65m-98.59 2.91 53.89-46.93 53.69 43.88m-116.49 3.47 62.81-49.48 63.72 45.83m-135.69 3.84 71.97-52.64 72.75 48.7m-154.66 4.62 81.59-55.41 82.15 50.82m-172.87 5.02 91.05-58.07 91.57 52.79m-191.71 5.8 100.14-60.96m-109.48 61.38 109.43-64.46 109.85 57.95m-228.22 6.77 118.35-66.85 119.45 59.95m-18.57.32-100.82-55.06"/><path d="m455.02 147.02h-1.39l.69-.91.69.91zm-9.59.15h-1.39l.69-.93.69.93zm-8.98.19h-1.39l.69-.93.69.93z"/></g><path d="m330.47 187.06 2.89-106.1h3.32l2.89 106.1z" fill="#14509f"/><path d="m330.47 187.06 2.89-106.1h3.32l2.89 106.1z" fill="none" stroke="#fff" stroke-width="1.13"/><path d="m8.72 187.92-.69-19.58h-1.83l-.71 19.58z" fill="#14509f"/><path d="m8.72 187.92-.69-19.58h-1.83l-.71 19.58z" fill="none" stroke="#fff" stroke-width="1.13"/><path d="m76.75 188.16-.91-21.54h-1.78l-.89 21.54z" fill="#14509f"/><path d="m76.75 188.16-.91-21.54h-1.78l-.89 21.54z" fill="none" stroke="#fff" stroke-width="1.13"/><path d="m143.99 188.16-1.02-23.64h-1.54l-1.03 23.64z" fill="#14509f"/><path d="m143.99 188.16-1.02-23.64h-1.54l-1.03 23.64z" fill="none" stroke="#fff" stroke-width="1.13"/><path d="m208.25 154.47h2.1v6.71h-2.1z" fill="#14509f"/><path d="m208.25 154.47h2.1v6.71h-2.1z" fill="none" stroke="#fff" stroke-width="1.13"/><path d="m625.86 186.25-2.89-105.29h-3.31l-2.9 105.29z" fill="#14509f"/><path d="m625.86 186.25-2.89-105.29h-3.31l-2.9 105.29z" fill="none" stroke="#fff" stroke-width="1.13"/><path d="m462.24 152.6-1.2.03c.95-.9 2.27-2.15 3.03-2.87v2.86l-1.82-.02zm-57.56 1.11c.95-.91 2.32-2.21 3.11-2.98v2.91l-2.69.07zm-61.84-1.81v2.99l-2.79.05c.84-.9 2.03-2.28 2.79-3.04zm3.7 2.92-2.64.05v-2.92c.71.76 1.88 2.05 2.64 2.87zm5.34-3.03v2.92l-3.14.07c.95-.91 2.37-2.23 3.14-2.99zm3.86 2.84-2.72.07v-2.86c.73.74 1.91 1.98 2.72 2.79zm5.31-2.99v2.89l-3.11.07c.95-.91 2.33-2.21 3.11-2.96zm3.86 2.82-2.72.05v-2.82c.73.73 1.93 1.96 2.72 2.77zm5.55-3.03v2.92l-3.13.05c.96-.91 2.33-2.23 3.13-2.98zm3.89 2.84-2.77.07v-2.86c.74.74 1.96 1.98 2.77 2.79zm5.43-3.08v2.98l-3.16.07c.96-.91 2.37-2.28 3.16-3.04zm3.89 2.91-2.76.05v-2.91c.73.74 1.94 2.03 2.76 2.86zm5.31-3.01v2.91l-3.15.05c.95-.9 2.35-2.2 3.15-2.96zm3.84 2.82-2.72.07v-2.84c.73.74 1.91 1.96 2.72 2.77zm5.61-2.99v2.89l-3.1.07c.96-.91 2.32-2.21 3.1-2.96zm3.84 2.82-2.71.05v-2.82c.71.74 1.89 1.94 2.71 2.77zm9.39-.18-2.74.05v-2.82c.73.73 1.93 1.94 2.74 2.77zm5.43-3.04v2.94l-3.13.05c.95-.91 2.35-2.23 3.13-2.99zm3.86 2.86-2.72.07v-2.86c.73.73 1.91 1.96 2.72 2.79zm5.73-2.98v2.87l-3.08.07c.95-.91 2.3-2.2 3.08-2.94zm3.85 2.81-2.72.05v-2.81c.73.74 1.91 1.93 2.72 2.76zm5.45-3.03v2.91l-3.1.07c.95-.91 2.32-2.23 3.1-2.98zm3.82 2.84-2.71.05v-2.84c.73.73 1.89 1.96 2.71 2.79zm5.48-2.94v2.84l-3.08.05c.95-.9 2.3-2.16 3.08-2.89zm3.79 2.76-2.67.05v-2.76c.71.71 1.86 1.89 2.67 2.71zm5.6-2.99v2.89l-3.1.07c.95-.91 2.32-2.21 3.1-2.96zm3.8 2.82-2.67.05v-2.82c.71.73 1.86 1.94 2.67 2.77zm9.49-.07h-2.74v-2.81c.73.74 1.93 2 2.74 2.81zm5.33-2.99v3.03l-3.16-.02c.95-.91 2.37-2.25 3.16-3.01zm4.06 3.04-2.93-.02v-2.98c.78.81 2.13 2.18 2.93 2.99zm4.33-2.99v3.01l-2.94-.02c.79-.81 2.15-2.2 2.94-2.99zm4.35 3.03-3.23-.02v-3.08c.81.78 2.28 2.18 3.23 3.1zm5.01-2.88v2.89l-2.79-.02c.8-.83 2.05-2.11 2.79-2.88zm4.24 2.91-3.11-.02v-2.94c.78.76 2.16 2.05 3.11 2.96zm4.92-2.79v2.81l-2.71-.02c.81-.83 2-2.06 2.71-2.79zm4.18 2.82-3.04-.02v-2.88c.76.74 2.08 1.98 3.04 2.89zm5.45-2.72v2.82l-2.67-.07c.81-.83 1.96-2.03 2.67-2.76zm4.23 2.91-3.09-.07v-2.89c.78.74 2.15 2.05 3.09 2.96zm5.18-2.67v2.77l-2.67-.05c.8-.81 1.96-2 2.67-2.72zm4.16 2.88-3.04-.07v-2.86c.76.73 2.1 2.01 3.04 2.93zm5.23-2.64v2.74l-2.66-.05c.8-.81 1.95-1.98 2.66-2.69zm4.23 2.84-3.09-.07v-2.84c.78.76 2.15 2.01 3.09 2.91zm5.28-2.84v2.94l-2.76-.07c.81-.83 2.01-2.13 2.76-2.87zm4.4 3.03-3.28-.07v-3.03c.83.81 2.33 2.2 3.28 3.09zm4.92-2.96v3.08l-2.91-.07c.81-.83 2.13-2.21 2.91-3.01zm4.45 3.16-3.33-.07v-3.15c.84.81 2.38 2.3 3.33 3.21zm4.85-2.89v2.99l-2.92-.05c.79-.81 2.13-2.15 2.92-2.94zm4.45 3.08-3.33-.07v-3.06c.86.79 2.4 2.23 3.33 3.13zm4.95-3.01v3.11l-2.94-.07c.79-.81 2.15-2.23 2.94-3.04zm4.5 3.18-3.38-.05v-3.18c.86.83 2.45 2.35 3.38 3.23zm4.74-2.96v3.06l-2.92-.07c.79-.8 2.15-2.18 2.92-2.99zm4.46 3.15-3.33-.07v-3.13c.85.81 2.38 2.28 3.33 3.2zm4.97-3.08v3.16l-2.94-.05c.78-.9 2.15-2.28 2.94-3.11zm4.58 3.25-3.47-.07v-3.23c.9.84 2.54 2.42 3.47 3.3zm4.68-3.1v3.16l-3.04-.03c.78-.8 2.21-2.28 3.04-3.13zm4.57 3.21-3.43-.05v-3.21c.88.85 2.5 2.37 3.43 3.26zm4.72-3.09v3.14l-3.03-.03c.79-.8 2.2-2.27 3.03-3.11zm4.53 3.19-3.42-.03v-3.21c.88.83 2.47 2.35 3.42 3.25zm4.38-3.03v3.08l-2.7-.03c.71-.8 1.98-2.23 2.7-3.04zm4.04 3.13-3.03-.03v-3.16c.78.81 2.18 2.28 3.03 3.19zm.96.02-3.79-4.03h-1.44l-3.28 3.77-4.06-3.94h-1.59l-3.64 3.8-4.06-3.92h-1.59l-3.62 3.79-4.06-3.92h-1.59l-3.74 3.89-4.11-3.97h-1.59l-3.57 3.74-4.09-3.96h-1.57l-3.72 3.89-4.09-3.96h-1.59l-3.58 3.74-4.12-4.01h-1.59l-3.69 3.85-4.06-3.92h-1.59l-3.59 3.74h-.46l-3.85-3.74h-1.59l-3.4 3.55-.51-.02-3.89-3.77h-1.59l-3.43 3.58-.44-.02-3.94-3.81h-1.59l-3.42 3.62-.73-.02-3.89-3.7h-1.59l-3.5 3.67h-.17l-3.91-3.79h-1.59l-3.58 3.75h-.14l-4.04-3.91h-1.59l-3.4 3.55-3.38-3.55h-1.59l-3.96 3.84h-.12l-3.53-3.7h-1.59l-3.84 3.72h-.53l-3.47-3.62h-1.59l-3.92 3.8h-.47l-3.41-3.57h-1.59l-3.87 3.74-.34.02-3.48-3.65h-1.59l-3.96 3.82-.3.02-3.45-3.62h-1.59l-3.91 3.79h-.59l-3.5-3.65h-1.59l-3.97 3.84h-.25l-3.48-3.64h-1.59l-3.94 3.81-.36.02-3.47-3.64h-1.59l-3.92 3.8h-.47l-3.48-3.64h-1.59l-3.94 3.82h-.1l-3.55-3.72h-1.59l-4.03 3.89h-.22l-3.5-3.65h-1.59l-3.96 3.84h-.36l-3.48-3.65h-1.59l-3.94 3.82h-.13l-3.5-3.65h-1.59l-3.96 3.84h-.19l-3.38-3.74h-1.52l-3.58 3.89-.3.02v.3l-.05.07h.05v.34l66.37-1.27 57.14-.79 42.75.15 51.86.79 33.64.63 27.14.3v-.71h-.39z" fill="none" stroke="#fff" stroke-width="1.13"/><path d="m7.74 167.17v-4.43l3.91-.06 133.81-4.42 62.79-1.91v-1.71l-62.79 1.91-133.81 4.42-5.06.17v6.44l1.54-.09" fill="#14509f"/><path d="m7.74 167.17v-4.43l3.91-.06 133.81-4.42 62.79-1.91v-1.71l-62.79 1.91-133.81 4.42-5.06.17v6.44l1.54-.09" fill="none" stroke="#fff" stroke-width="1.13"/><path d="m6.34 161.15v1.79" fill="none" stroke="#fff" stroke-width="1.13"/><path d="m210.34 156.6 121.11-5.37.05-2.13-121.16 5.37z" fill="#14509f"/><path d="m210.34 156.6 121.11-5.37.05-2.13-121.16 5.37z" fill="none" stroke="#fff" stroke-width="1.13"/><path d="m6.27 163.69h.64v4.7h-.64z" fill="#14509f"/><path d="m6.27 163.69h.64v4.7h-.64z" fill="none" stroke="#fff" stroke-width="1.13"/><path d="m210.34 155.54 121.16-5.38" fill="#14509f"/><path d="m210.34 155.54 121.16-5.38" fill="none" stroke="#fff" stroke-width="1.13"/><path d="m477.96 148.66 139.68 2.57.05-2.13-139.73-2.57h.02l-139.51 2.57.05 2.13 139.46-2.57z" fill="#14509f"/><path d="m617.69 150.16-139.73-2.57h.02l-139.51 2.57m139.49-1.51 139.68 2.57.05-2.13-139.73-2.57h.02l-139.51 2.57.05 2.13 139.46-2.57z" fill="none" stroke="#fff" stroke-width="1.13"/><path d="m746.33 155.91-121.38-4.65-.07-2.13 121.45 4.67z" fill="#14509f"/><path d="m746.33 155.91-121.38-4.65-.07-2.13 121.45 4.67z" fill="none" stroke="#fff" stroke-width="1.13"/><path d="m746.33 154.85-121.45-4.65" fill="#14509f"/><path d="m746.33 154.85-121.45-4.65" fill="none" stroke="#fff" stroke-width="1.13"/><path d="m747.77 160-1.44-.12v-6.08h1.44z" fill="#14509f"/><path d="m747.77 160-1.44-.12v-6.08h1.44z" fill="none" stroke="#fff" stroke-width="1.13"/><path d="m7.47 167.24.56-.59-.04.54z" fill="#14509f"/><path d="m74.03 166.58.89-.68.98.68z" fill="#14509f"/><path d="m74.03 166.58.89-.68.98.68z" fill="none" stroke="#fff" stroke-linejoin="bevel" stroke-width="1.13"/><path d="m141.38 164.47.83-.75.79.75z" fill="#14509f"/><path d="m141.38 164.47.83-.75.79.75z" fill="none" stroke="#fff" stroke-linejoin="bevel" stroke-width="1.13"/></g><path d="m0 149.97h27.94v35.29h-27.94z" fill="url(#d)"/><path d="m896.87 149.97h27.94v35.29h-27.94z" fill="url(#e)" transform="matrix(-1 0 0 -1 1821.67 335.23)"/></g></g></svg>