<svg viewBox="0 0 97.35 30.45" xmlns="http://www.w3.org/2000/svg"><g fill="#c8161d"><path d="m12.06 24.66v5.27h-4.94v-5.27h-5.09v-2.62h5.09v-1.79h-5.09v-2.59h3.62l-5.65-8.32h5.62l4.05 6.32h.06l4.05-6.32h5.37l-5.62 8.32h3.56v2.59h-5.03v1.79h5.03v2.62z"/><path d="m42.6 29.92h-21.61v-5.24c8.72-6.56 13.72-9.99 13.72-14.79 0-2.42-1.36-3.96-3.59-3.96s-3.51 1.58-3.51 3.61c0 1.01.39 1.8.92 2.51l-6.05 2.51c-1.1-1.36-1.75-3.17-1.75-5.33 0-4.71 3.73-9.24 10.7-9.24s10.65 4 10.65 9.73c0 6.03-6.01 10.96-11.27 13.99h11.79v6.2z"/><path d="m57.82 22.36h-12.85v-5.46l12.89-16.37h7.01v16.68h5v5.15h-5v7.57h-7.06v-7.57zm-7.02-5.33v.18h7.02v-9.02h-.18z"/><path d="m97.35 15.23c0 8.71-4.47 15.23-12.23 15.23s-12.19-6.51-12.19-15.23 4.43-15.23 12.19-15.23 12.23 6.51 12.23 15.23zm-7.19 0c0-5.41-1.45-9.11-5.04-9.11s-5 3.7-5 9.11 1.4 9.11 5 9.11 5.04-3.7 5.04-9.11z"/></g></svg>